<svg width="1920" height="1080" viewBox="0 0 1920 1080" fill="none" xmlns="http://www.w3.org/2000/svg">
<g clip-path="url(#clip0_127_176)">
<path opacity="0.46" d="M3120.34 560.479C3112.59 594.243 3059.92 625.144 2974.66 653.224C2875.96 681.291 2784.96 706.522 2720.72 728.986C2696.45 751.477 2715.53 771.268 2772.13 788.521C2854.17 806.044 2941.95 821.394 3016.26 834.934C3062.37 849.447 3068.91 862.96 3034.22 876.217C2964.56 891.715 2872.07 908.307 2773.25 927.018C2684.79 949.752 2621.11 976.252 2591.15 1007.63C2598.25 1044.63 2637.69 1087.69 2699.53 1137.46C2772.17 1192.93 2839.45 1254.69 2888.32 1322.14C2910.38 1392.42 2899.34 1465.42 2855.97 1538.99C2785.58 1609.11 2697.17 1674.63 2602.26 1732.48C2511.82 1779.52 2436.75 1814.16 2384.35 1834.39C2358.83 1840.55 2360.09 1832.23 2384.24 1810.81C2426.55 1781.35 2477.34 1745.93 2527.68 1709.56C2585.2 1670.17 2575.5 1690.43 2502.4 1766.29C2431.55 1841.2 2350.83 1928.73 2266.29 2021.72C2182.58 2110.62 2105.88 2187.66 2040.09 2244.62C1987.47 2275.83 1949.95 2278.68 1927.21 2253.87C1918.92 2208.22 1922.31 2148.88 1934.3 2086.98C1953.76 2036.54 1975.6 2006.8 1996.67 2006.4C2016.55 2039.65 2030.72 2104.14 2037.63 2192.85C2037.89 2293.18 2029.12 2390.84 2011.56 2470.5C1986.23 2519.57 1953.05 2530.64 1913.29 2502.66C1867.58 2443.85 1817.44 2366.06 1764.29 2286.7C1707.95 2225.62 1650.63 2196.44 1593.41 2208.49C1535.24 2262.59 1478.47 2349.55 1423.62 2453.25C1369.1 2552.84 1317 2628.02 1267.42 2662.7C1218.58 2650.51 1172.21 2594.24 1128.18 2507.34C1084.81 2412.52 1043.47 2331.85 1003.98 2286.17C964.82 2288.86 927.217 2339.77 890.977 2427.84C854.846 2532.28 819.902 2627.21 786.147 2688.48C752.378 2700.74 720.176 2660.38 689.62 2578.22C659.159 2475.01 630.522 2375.74 603.895 2303.91C577.62 2276.15 553.681 2297.23 532.294 2360.07C511.555 2449.57 493.664 2542.01 478.825 2614.84C464.729 2651.67 453.712 2642.11 445.718 2587.91C438.063 2500.11 432.932 2396.36 429.84 2297.34C424.142 2202.11 407.575 2259.83 390.211 2371.63C371.457 2443.95 346.842 2493.07 315.153 2508.34C275.7 2486.09 228.213 2428.04 172.503 2343.28C110.164 2244.12 41.357 2145.6 -32.297 2061.42C-107.153 2001.93 -181.927 1973.46 -253.421 1976.31C-317.462 2007.53 -371.997 2057.74 -413.934 2116.03C-447.284 2194.84 -416.702 2220.76 -364.638 2151.09C-326.44 2076.68 -291.011 1989.95 -264.425 1899.15C-253.489 1811.02 -260.861 1733.51 -289.377 1671.58C-339.335 1628.09 -408.277 1604.3 -491.693 1598.7C-581.9 1609.82 -671.419 1632.45 -751.298 1661.59C-831.824 1709.69 -822.454 1764.57 -744.142 1756.09C-681.911 1733.89 -624.932 1699.26 -584.655 1654.03C-571.396 1599.44 -589.165 1538.1 -638.704 1472.55C-715.058 1403.37 -808.466 1334.02 -905.87 1266.3C-992.446 1199.81 -1055.26 1137.33 -1084.3 1079.47C-1076.28 1025.27 -1033.13 976.185 -963.713 931.905C-883.943 891.54 -809.046 855.279 -755.47 822.325C-736.864 792.409 -757.981 764.694 -817.121 738.355C-904.466 713.92 -1003.73 689.836 -1095.67 665.482C-1162.17 642.087 -1189.56 617.692 -1171.97 591.88C-1114.4 566.46 -1028.46 539.203 -933.131 509.908C-851.254 480.694 -800.297 449.253 -792.547 415.489C-831.055 381.739 -905.708 346.059 -999.021 308.583C-1091.2 271.201 -1160.26 232.2 -1191.16 191.875C-1177.92 151.915 -1122.4 111.037 -1036.34 69.6734C-937.235 29.2814 -844.584 -10.8542 -775.966 -50.0852C-743.872 -87.4262 -752.392 -122.81 -797.34 -155.412C-869.077 -184.964 -950.454 -210.587 -1024.09 -231.485C-1076.08 -248.454 -1094.05 -259.97 -1073.94 -265.694C-1018.64 -267.746 -936.304 -264.506 -840.101 -256.527C-744.331 -247.307 -663.305 -235.751 -607.676 -223.574C-583.885 -215.042 -592.392 -209.952 -628.294 -210.789C-684.503 -220.995 -748.233 -240.989 -807.426 -272.565C-852.969 -316.373 -874.842 -372.263 -868.78 -439.466C-834.673 -514.688 -775.089 -595.917 -696.655 -679.172C-606.987 -758.538 -515.754 -830.439 -431.703 -889.866C-336.149 -944.339 -281.384 -927.221 -314.559 -867.24C-352.216 -820.692 -392.628 -777.155 -429.718 -744.849C-460.179 -732.335 -477.813 -743.189 -480.094 -780.219C-466.7 -842.198 -436.699 -924.386 -391.872 -1019.01C-334.137 -1114.84 -266.869 -1201.43 -193.728 -1267.81C-116.847 -1305.81 -40.7223 -1311.27 31.7706 -1284.46C99.6322 -1232.96 159.892 -1165.86 211.7 -1096.81C255.082 -1042.15 289.607 -1012.92 316.165 -1018.14C334.92 -1060.87 347.639 -1136.13 355.875 -1233.2C359.237 -1335.89 360.655 -1426.96 361.519 -1490.02C360.587 -1514.24 361.019 -1495.69 363.639 -1439.06C366.528 -1359.07 372.55 -1272.93 381.921 -1201.2C392.466 -1163.07 406.481 -1168.09 423.804 -1217.96C442.343 -1303.8 463.838 -1407.73 487.966 -1507.13C512.945 -1579.86 540.071 -1609.24 568.992 -1588.17C598.346 -1523.02 629.09 -1428.8 660.996 -1328.97C693.009 -1250.18 725.941 -1211.53 759.71 -1223.79C793.465 -1285.07 827.666 -1378.28 862.353 -1479.34C897.148 -1564.03 932.645 -1609.9 969.06 -1605.91C1005.91 -1553.54 1044.08 -1464.56 1083.85 -1359.86C1124.51 -1263.06 1167.24 -1195.3 1212.38 -1170.09C1258.75 -1191.74 1307.84 -1252.34 1359.82 -1335.87C1412.96 -1423.47 1468.84 -1492.84 1527.21 -1527.89C1585.86 -1520.9 1646.04 -1471.2 1706.91 -1388.18C1765.98 -1286.87 1823.8 -1185.73 1878.95 -1102.17C1929.24 -1049.44 1974.31 -1034.38 2012.57 -1055.98C2043.04 -1108.16 2064.76 -1177.01 2076.83 -1247.24C2077.64 -1322.37 2030.43 -1274.56 1994.01 -1157.14C1972.9 -1060.09 1956.78 -964.373 1949.27 -881.186C1954.66 -818.816 1973.94 -782.933 2008.87 -774.293C2059.46 -791.37 2124.42 -827.415 2201.21 -874.206C2284.62 -925.101 2370.35 -969.449 2452.27 -1000.11C2523.46 -1013.38 2579.15 -1004.74 2614.54 -974.255C2627.69 -923.805 2618.02 -856.94 2587.67 -779.004C2543.49 -694.332 2490.99 -609.633 2438.87 -529.956C2398 -458.325 2374.79 -398.871 2375.84 -352.998C2404.94 -321.206 2460.76 -302.913 2538.98 -296.177C2630.85 -300.24 2725.99 -311.148 2812.33 -325.836C2897.01 -352.337 2863.74 -386.411 2765.29 -385.371C2693.83 -376.623 2634.87 -360.464 2601.51 -337.541C2603.34 -308.988 2641.84 -274.887 2712.87 -236.372C2805.58 -193.833 2904.53 -148.514 2992.36 -101.52C3053.39 -52.2722 3076.48 -2.67318 3057.43 46.4668C3001.83 96.5923 2920.67 145.489 2831.46 192.712C2755.29 240.219 2708.08 285.7 2701.53 328.981C2739.09 372.276 2813.22 413.275 2908.77 451.899C3005.48 490.495 3081.83 526.716 3120.34 560.479Z" stroke="#9234EA" stroke-opacity="0.5" stroke-width="2" stroke-linecap="round"/>
<path opacity="0.69" d="M3035.27 348.503C3028.85 380.795 2980.96 411.952 2901.93 442.071C2808.1 472.297 2717.91 501.714 2648.72 530.577C2613.7 559.913 2618.1 589.153 2659.47 618.732C2729.63 649.363 2812.75 681.021 2891.94 714.244C2952.88 749.277 2982.22 786.658 2974.24 826.942C2930.23 869.67 2856.68 915.894 2765.77 965.952C2671.68 1018.47 2588.96 1074.72 2529.38 1134.47C2500.77 1195.44 2505.06 1258.62 2538.67 1322.92C2595.11 1385.48 2662 1446.51 2726.94 1504.17C2779.95 1555.81 2810.11 1600.76 2812.04 1637.12C2784.86 1663.77 2730.52 1679.71 2655.49 1684.22C2567.84 1679.05 2477.7 1663.9 2394.56 1640.43C2325.98 1613.47 2278.17 1584.16 2253.64 1556.39C2252.99 1536.19 2272.73 1525.49 2307.51 1528.09C2352.63 1547.38 2399.35 1583.81 2440.78 1637.54C2472.76 1706.01 2489.01 1786.08 2487.06 1872.61C2466.74 1958.19 2428.08 2036.95 2373.82 2101.94C2306.85 2147.27 2231.83 2169.42 2153.42 2166.62C2074.79 2141.75 2000.93 2098.21 1934.91 2043.08C1878.31 1987.46 1833.28 1939.33 1799.99 1908.31C1778.48 1902.89 1767.43 1926 1764.93 1978.02C1770.6 2054.24 1780.91 2146.27 1793.54 2242.63C1828.63 2311.11 1766.2 2111.37 1720.4 2161.35C1685.1 2239.33 1646.99 2336.23 1606.94 2434.87C1564.75 2516.91 1521.67 2566.93 1478.41 2575.1C1434.05 2541.2 1390.22 2472.09 1347.39 2382.97C1304.1 2295.24 1262.22 2227.62 1222.01 2196.44C1181.65 2210.72 1143.14 2267.77 1106.65 2355.98C1070.12 2456.2 1035.67 2545.65 1003.37 2603.42C971.072 2616.26 941.313 2580.69 914.052 2505.53C886.751 2408.31 861.88 2310.57 839.332 2233.63C816.635 2193.91 796.071 2198.5 777.411 2244.58C758.292 2321.85 740.658 2411.14 724.118 2492.25C706.471 2548.56 689.175 2566.26 671.568 2541.38C651.828 2478.52 630.711 2388.89 607.42 2289.13C580.685 2196.65 550.576 2127.32 516.294 2091.53C477.543 2093.81 433.836 2130.38 384.77 2191.55C331.355 2265.49 272.959 2335.47 210.052 2387.64C145.013 2412.81 77.6236 2404.11 9.51898 2362.07C-56.1283 2292.02 -118.697 2203.29 -175.811 2107.93C-224.77 2017.37 -264.344 1942.97 -292.604 1892.25C-309.104 1869.41 -312.992 1874.08 -304.432 1901.91C-286.447 1947.66 -259.727 2001.05 -227.308 2052.78C-180.24 2109.29 -135.116 2089.54 -159.46 2010.14C-199.845 1935.9 -257.418 1853.19 -329.667 1768.41C-411.369 1686.37 -497.31 1613.26 -580.591 1552.77C-653.502 1506.91 -710.292 1477.05 -745.56 1462.29C-756.955 1461.97 -743.939 1472.61 -708.996 1490.72C-659.484 1514.97 -601.803 1539.93 -545.418 1562.44C-489.506 1588.22 -538.586 1587.4 -646.751 1557.72C-737.971 1526.78 -829.853 1488.24 -909.975 1443.62C-967.251 1393.42 -993.89 1339.59 -986.275 1283.67C-947.686 1225.25 -884.591 1166.79 -808.722 1109.31C-736.041 1051.6 -679.318 995.99 -650.694 942.908C-658.093 890.703 -701.381 841.293 -774.778 794.651C-866.444 749.088 -960.554 706.063 -1040.18 665.32C-1091 625.387 -1103.37 587.304 -1074.71 550.8C-1011.93 514.715 -926.569 479.803 -835.97 445.905C-760.182 412.101 -713.911 379.08 -707.497 346.788C-743.48 314.496 -813.043 283.311 -901.239 253.328C-990.987 223.452 -1062.58 194.994 -1101.65 168.183C-1101.26 141.79 -1060.48 117.423 -987.315 95.4181C-895.487 74.2231 -801.58 55.809 -722.174 40.4595C-670.771 26.2035 -654.92 15.2416 -675.254 7.6681C-727.251 0.972096 -798.663 -2.63243 -875.112 -3.49643C-966.143 -4.37393 -958.245 -5.81847 -855.845 -12.987C-764.949 -24.3405 -672.405 -41.067 -590.366 -64.6515C-528.662 -96.363 -493.961 -136.444 -488.169 -185.463C-510.191 -242.338 -553.289 -306.949 -608.662 -377.986C-668.26 -451.926 -720.5 -527.512 -756.996 -601.533C-772.955 -669.411 -763.787 -728.973 -729.789 -776.696C-673.755 -809.973 -600.682 -827.239 -517.522 -827.604C-430.785 -813.321 -348.368 -785.498 -276.415 -747.752C-181.536 -653.576 -243.848 -720.59 -293.131 -834.84C-320.527 -924.696 -338.093 -1015.13 -343.777 -1096.81C-337.485 -1160.55 -317.664 -1200.03 -285.273 -1210.82C-241.526 -1193.72 -188.246 -1151.79 -127.905 -1092.5C-61.7856 -1028.38 6.80507 -969.705 75.5308 -928.449C143.946 -915.205 209.026 -934.065 269.57 -985.5C325.9 -1063.93 376.331 -1158.91 420.874 -1256.53C460.044 -1341.37 493.732 -1400.3 522.68 -1423.56C547.038 -1408.78 567.926 -1359.09 586.302 -1284.84C601.614 -1203.28 615.777 -1130.48 629.617 -1083C641.823 -1073.48 654.717 -1105.11 668.868 -1173.87C682.329 -1267.45 697.627 -1367.71 715.045 -1454.45C732.273 -1510 751.865 -1522.56 773.941 -1489.25C795.99 -1418.72 820.577 -1325.81 847.73 -1231.79C874.883 -1159.88 904.601 -1125.91 936.898 -1138.74C969.195 -1196.49 1003.69 -1284.3 1040.32 -1381.28C1076.97 -1466.28 1115.76 -1518.51 1156.62 -1526.42C1197.46 -1488.86 1240.32 -1413.3 1285.04 -1316.12C1329.57 -1217.52 1375.72 -1137.43 1423.16 -1091.06C1469.93 -1086.75 1517.41 -1122.81 1565 -1189.46C1610.95 -1272.71 1655.99 -1352.81 1699.28 -1412.57C1739.5 -1440.38 1776.59 -1428.65 1809.57 -1378.98C1837.95 -1299.48 1860.93 -1203.24 1877.72 -1106.03C1860.89 -1064.15 1802.63 -1238.46 1807.32 -1194.76C1824.72 -1130.11 1853.83 -1047.2 1895.56 -955.665C1949.29 -864.608 2014 -784.026 2087.6 -721.022C2165.81 -680.09 2245.67 -663.012 2322.54 -668.074C2390.89 -692.793 2447.15 -730.242 2487.24 -773.483C2508.92 -817.695 2511.03 -854.429 2494.04 -878.607C2462.37 -888.03 2419.17 -879.187 2370.57 -852.268C2325.55 -808.677 2289.53 -750.829 2269.42 -682.6C2271.34 -606.811 2296.97 -528.579 2346.56 -451.845C2416.69 -378.594 2501.39 -312.822 2592.24 -256.23C2678.89 -209.29 2752.03 -172.989 2802.86 -146.61C2825.88 -129.937 2818.74 -121.095 2783.32 -118.206C2727.56 -121.324 2660.01 -127.089 2592.8 -133.691C2525.25 -145.287 2580.32 -153.779 2699.4 -146.853C2794.06 -138.308 2882.31 -125.334 2949.68 -108.27C2985.4 -88.7759 2983.49 -65.7854 2944.55 -39.9194C2877.62 -12.2444 2794.69 17.5366 2712.33 48.8431C2648.63 81.2026 2615.8 114.399 2621.8 147.96C2667.26 182.007 2743.68 215.946 2836.67 249.493C2928.09 283.162 2999.29 316.211 3035.27 348.503Z" stroke="#9234EA" stroke-opacity="0.5" stroke-width="2" stroke-linecap="round"/>
<path opacity="0.23" d="M2950.2 411.844C2944.99 442.665 2901.66 475.227 2828.83 509.517C2740.29 543.875 2651.92 580.082 2579.35 618.206C2535.18 656.546 2525.99 696.978 2551.95 739.57C2608.28 782.5 2682.92 827.685 2761.82 875.057C2831.95 922.644 2879.41 972.216 2895.88 1023.48C2878.83 1074.29 2829.66 1126.06 2755.83 1178.1C2667.95 1228.31 2578.54 1277.42 2499.81 1324.36C2441.78 1367.4 2411.07 1406.47 2409.63 1440.32C2436.27 1468.18 2484.08 1489.27 2544 1502.71C2607.47 1509.41 2662.72 1508.31 2701.12 1499.67C2717.61 1486.36 2707.83 1467.84 2672.38 1445.92C2614.56 1425.02 2540.04 1405.53 2456.47 1390.38C2371.16 1383.91 2292.42 1387.02 2226.62 1402.1C2178.23 1430.97 2150.02 1473.63 2141.92 1529.79C2153.05 1596.96 2178.97 1672.87 2214.6 1753.6C2256.34 1833.27 2296.86 1907.75 2331.09 1971.59C2362.23 2034.61 2328.53 2031.83 2264.24 1973.01C2205.75 1923.03 2139.4 1872.72 2068.64 1830.22C1995.53 1804.48 1924.12 1799.9 1856.97 1820.34C1795.12 1866.38 1741.06 1934.69 1695.5 2019.13C1658.52 2110.17 1630.23 2197.91 1609.79 2271.56C1593.63 2332.46 1591.75 2263.72 1598.07 2162.39C1606.05 2068.77 1610.25 2045.57 1603.5 2138.16C1596.1 2228.66 1585.03 2323.92 1570.48 2408.08C1554.15 2466.91 1534.74 2490.26 1512.67 2474.01C1489.22 2422.75 1463.66 2345.87 1436.44 2258.83C1408.36 2180.98 1379.16 2127.4 1349.17 2110.28C1318.8 2134.97 1288.05 2196.9 1257.13 2284.42C1226.11 2380.1 1195.14 2464.09 1164.3 2518.4C1133.48 2531.7 1103.16 2500.66 1073.28 2432.43C1043.31 2341.58 1013.58 2246.51 983.899 2166.24C953.83 2116.45 923.423 2105.77 892.354 2134.69C860.435 2197.14 827.342 2278.53 792.655 2361.77C756.591 2431.34 718.366 2471.9 677.617 2475.5C635.085 2441.42 589.637 2374.57 541.11 2286.37C490.856 2191.01 437.644 2103.83 381.732 2037.82C325.077 2002.14 266.694 2000.16 207.446 2029.29C149.657 2083.59 92.962 2150.82 38.7645 2218.23C-10.7477 2275.2 -55.2372 2310.03 -93.1241 2316.53C-123.301 2293.25 -144.905 2241.69 -157.03 2168.25C-160.581 2081.08 -154.856 1990.64 -140.516 1906.82C-120.884 1837.57 -96.1756 1789.45 -68.9148 1765.22C-44.017 1765.48 -22.6701 1786.7 -8.29033 1823.31C-5.13084 1870.37 -14.2853 1918.81 -37.779 1961.52C-76.4085 1994.15 -129.404 2010.34 -195.146 2007.71C-269.772 1986.12 -349.732 1945.93 -429.921 1890.14C-504.007 1821.84 -567.359 1746.04 -614.886 1667.59C-643.2 1589.8 -650.356 1517.74 -636.26 1454.44C-604.746 1401.45 -559.217 1360.68 -506.005 1332.1C-432.77 1312.58 -386.863 1328.87 -440.304 1351.57C-506.208 1368.93 -587.76 1383.99 -676.334 1395.22C-761.344 1403.57 -832.999 1406.07 -882.241 1402.39C-903.413 1393.86 -894.029 1379.05 -856.034 1358.5C-797.34 1333.29 -726.67 1303.33 -656.176 1269.59C-599.75 1232.43 -566.643 1192.77 -564.267 1151.51C-595.43 1108.21 -656.203 1064.43 -738.228 1020.82C-829.016 976.226 -914.147 932.499 -979.511 890.068C-1014.51 847.287 -1012.91 806.139 -974.839 766.867C-908.368 727.501 -824.614 690.147 -739.16 654.926C-669.408 619.691 -627.646 586.616 -622.434 555.795C-655.919 524.975 -720.486 496.759 -803.403 471.109C-890.127 445.446 -963.146 422.321 -1009.05 401.639C-1020.38 380.876 -994.106 362.408 -935.008 346.086C-853.333 329.387 -762.518 314.456 -677.374 300.915C-592.54 279.491 -624.324 234.549 -719.933 207.36C-792.763 185.179 -855.561 159.786 -897.688 130.302C-912.864 96.1335 -896.905 56.862 -851.619 11.9745C-782.65 -37.7595 -698.559 -93.015 -609.877 -153.4C-526.65 -216.688 -458.518 -283.108 -412.044 -351.094C-391.102 -417.366 -395.571 -481.315 -422.008 -540.459C-466.093 -591.786 -518.954 -634.055 -572.247 -665.078C-636.382 -686.975 -646.697 -651.793 -584.439 -604.57C-520.142 -570.24 -444.814 -537.651 -364.409 -511.636C-283.801 -498.136 -209.161 -499.311 -144.797 -518.13C-93.4347 -555.889 -57.357 -611.523 -36.6583 -682.587C-31.1899 -763.735 -38.3731 -849.609 -55.1832 -933.066C-80.0811 -1006.07 -107.963 -1062.65 -135.359 -1097.2C-161.175 -1107.26 -180.807 -1092.35 -192.351 -1055.2C-195.902 -1003.47 -189.178 -944.014 -172.341 -886.68C-146.228 -843.075 -111.109 -820.206 -68.4557 -824.418C-19.0245 -858.411 35.1999 -919.552 92.5299 -1001.61C152.83 -1094.09 213.549 -1185.18 273.445 -1262.06C333.11 -1313.79 390.305 -1333.14 444.476 -1317.49C496.635 -1271.52 545.242 -1203.07 590.353 -1125.12C632.992 -1054.31 672.405 -1003.51 708.996 -984.123C743.453 -1002.4 775.737 -1056.27 806.346 -1137.73C835.47 -1232.87 863.635 -1324.74 891.261 -1396.24C918.063 -1434.19 944.905 -1431.08 972.125 -1387.39C998.967 -1313.21 1026.58 -1222.76 1055.15 -1135C1083.63 -1069.85 1113.24 -1040.38 1144.06 -1053.67C1174.9 -1107.99 1206.58 -1190.4 1238.99 -1283.01C1271.32 -1367.44 1304.21 -1424.75 1337.4 -1443.35C1370.23 -1420.13 1403 -1358.98 1435.34 -1272.08C1466.84 -1176.01 1497.34 -1088.64 1526.36 -1025.49C1553.89 -997.339 1579.23 -1007.38 1601.85 -1051.54C1622.33 -1121.03 1639.45 -1200.22 1652.75 -1273.32C1663.57 -1327.48 1670.31 -1350.81 1672.87 -1338.69C1673.41 -1292.68 1670.32 -1219.04 1664.08 -1128.98C1657.6 -1035.17 1649.65 -951.061 1641.42 -887.449C1636.16 -851.742 1633.28 -846.517 1634.47 -869.386C1642.44 -915.543 1657.19 -974.592 1680.19 -1035.8C1712.46 -1090.42 1754.07 -1127.74 1805.14 -1141.68C1864.2 -1130.02 1930.53 -1092.23 2002.2 -1032.2C2075.44 -955.422 2148.33 -869.751 2217.34 -783.365C2278.25 -703.013 2328.67 -635.863 2365.49 -586.143C2389.74 -551.34 2339.88 -594.243 2280.11 -648.175C2191.72 -728.109 2277.39 -682.573 2390.24 -606.784C2475.63 -544.131 2559.47 -476.32 2633.4 -406.323C2689.67 -335.299 2722.84 -266.908 2729.4 -202.986C2710.41 -143.721 2668.58 -91.2735 2610.46 -45.9135C2546.85 -7.30349 2486.63 24.3405 2440.25 49.896C2417.58 69.471 2422.94 84.4965 2458.15 96.1605C2520.32 103.936 2601.86 110.16 2692.08 115.884C2778.22 119.758 2848.01 124.497 2890.88 130.761C2901.04 136.566 2876.87 144.612 2822.67 155.156C2749.43 165.915 2669.1 179.388 2596.46 195.588C2546.39 212.112 2527.7 231.282 2545.13 252.977C2597.13 274.901 2674.77 299.174 2764.58 325.701C2850.59 352.296 2916.71 381.024 2950.2 411.844Z" stroke="#9234EA" stroke-opacity="0.5" stroke-width="2" stroke-linecap="round"/>
<path opacity="0.38" d="M2865.15 659.354C2861.1 688.716 2822.17 719.78 2755.5 752.463C2672.59 785.079 2586.98 819.167 2512.45 854.537C2460.84 889.623 2439.4 925.709 2450.32 962.415C2491.61 998.433 2554.73 1034.59 2628.58 1070.35C2702.12 1104.75 2762.06 1138.01 2798.81 1169.46C2807.29 1198.65 2784.82 1225.13 2734.45 1248.18C2662.79 1268.06 2579.05 1283.73 2493.92 1294.64C2355.48 1297.73 2449.89 1256.51 2534.93 1237.88C2596.13 1228.49 2585.98 1251.86 2511.73 1293.42C2441.37 1335.07 2362.76 1386.96 2282.5 1448.28C2206.16 1516.23 2139.8 1589.19 2087.37 1664.02C2051.42 1735.96 2032.92 1802.29 2030.87 1858.96C2044.23 1902.29 2068.83 1930.08 2100.56 1940.46C2136.94 1934.25 2172.07 1912.01 2202.1 1876.46C2225.49 1833.8 2238.11 1787.81 2238.65 1744.75C2227.27 1712.46 2203.22 1694.92 2167.71 1696.76C2121.98 1720.86 2068.06 1766.6 2008.34 1831.67C1944.05 1910.49 1878.29 1996.39 1813.21 2080.9C1749.31 2154.76 1689.25 2210.52 1634.07 2241.81C1583.64 2246.05 1539.28 2223.14 1500.92 2176.88C1468.25 2116.23 1441.09 2049.68 1418.72 1988.4C1401.11 1944.49 1386.96 1925.14 1375.31 1935.76C1366.79 1977.32 1359.38 2045.07 1352.26 2130.45C1346.73 2221.28 1340.44 2304.41 1332.87 2367.06C1325.83 2399.83 1316.91 2397.51 1305.88 2360.62C1294.84 2297.15 1281.47 2217.55 1265.73 2136.52C1249.8 2070.64 1231.51 2031.53 1210.92 2027.65C1190.18 2061.4 1167.23 2126.92 1142.09 2212.92C1116.92 2303.8 1089.66 2382.37 1060.29 2433.32C1030.93 2447.01 999.818 2420.31 967.008 2358.88C934.143 2274.74 899.484 2183.38 863.028 2101.46C826.437 2043.6 787.956 2019.19 747.558 2031.25C706.984 2077.23 664.493 2146.8 620.165 2226.41C575.811 2302.56 529.85 2360.02 482.538 2388.54C435.74 2383.61 388.199 2344.67 340.456 2277.76C294.305 2192.75 249.006 2102.11 205.421 2018.7C164.955 1953.5 127.581 1914.61 94.3122 1905.35C65.8092 1925.6 42.6936 1969.39 25.789 2028.08C14.5687 2093.04 10.005 2152.12 12.2329 2195.96C19.1865 2218.77 31.7434 2215.31 48.8775 2185.42C67.1999 2131.96 86.9265 2060.25 105.965 1977.9C120.425 1892.36 129.863 1812.29 131.929 1744.51C123.76 1693.85 104.965 1663.52 74.3291 1653.8C31.7839 1663.96 -21.995 1689.69 -85.6709 1725.91C-155.976 1768.88 -230.508 1811.12 -305.364 1847.34C-375.575 1874.79 -437.752 1888.43 -487.723 1886.58C-522.289 1869.3 -539.45 1836.46 -538.167 1790.11C-520.412 1732.29 -487.723 1666.49 -444.044 1596.25C-396.436 1523.69 -349.475 1452.98 -309.684 1386.75C-284.422 1326.06 -277.117 1273.47 -291.133 1229.65C-327.548 1194.66 -384.176 1168.57 -456.925 1150.47C-538.883 1140.18 -622.447 1135.78 -698.91 1135.66C-779.409 1143.22 -778.653 1163.34 -702.123 1169.69C-636.084 1172.15 -570.181 1171.08 -515.092 1166.35C-481.296 1159.72 -474.113 1149.34 -496.581 1135.43C-547.322 1119.62 -619.922 1100.75 -704.81 1079.24C-789.982 1056.29 -863.082 1031.32 -912.986 1004.78C-932.523 977.373 -918.306 948.929 -872.493 919.85C-803.781 890.379 -722.552 860.652 -642.593 830.912C-578.849 801.063 -541.421 771.417 -537.371 742.054C-568.466 712.705 -628.159 683.991 -705.715 655.844C-788.874 627.602 -862.231 599.737 -913.539 572.022C-935.224 543.915 -922.748 515.592 -878.285 486.689C-808.965 456.935 -725.077 426.046 -639.23 393.633C-563.727 359.775 -508.935 323.784 -481.566 285.228C-484.699 244.782 -515.673 201.353 -568.142 154.724C-634.343 106.205 -702.258 54.5535 -761.249 2.39611e-05C-803.443 -55.485 -821.05 -112.914 -811.22 -171.491C-774.94 -228.758 -715.652 -285.133 -640.216 -339.201C-556.544 -388.665 -473.816 -433.174 -400.351 -471.096C-318.069 -522.976 -438.279 -481.234 -506.302 -439.209C-548.753 -401.152 -520.992 -373.667 -451.038 -400.815C-386.863 -439.236 -314.815 -492.264 -239.541 -558.184C-164.523 -632.893 -94.6093 -712.692 -32.9992 -792.261C18.4033 -865.093 57.6134 -926.491 84.4016 -971.311C100.28 -997.947 72.8438 -922.266 42.9636 -843.089C10.8826 -770.202 -29.1106 -734.481 -29.8667 -795.393C-21.7924 -865.417 -6.35954 -949.549 15.8514 -1038.39C44.0438 -1120.97 77.8396 -1187.5 116.199 -1229.27C158.812 -1241.54 204.327 -1222.96 251.693 -1176.86C301.34 -1112.52 351.419 -1039.73 401.202 -971.284C451.713 -920.929 501.036 -897.278 548.78 -906.309C596.375 -948.821 642.039 -1018.94 685.664 -1106.42C728.83 -1197.36 769.958 -1276.91 809.1 -1331.52C847.838 -1352.19 884.753 -1335.02 919.966 -1282.96C954.95 -1206.87 988.435 -1119.91 1020.48 -1038.7C1052.46 -980.194 1083.13 -954.963 1112.49 -968.639C1141.86 -1019.57 1169.55 -1096.66 1195.57 -1184.6C1221.52 -1267.65 1245.65 -1328.8 1267.86 -1356.75C1289.84 -1347.08 1309.69 -1300.75 1327.27 -1226.29C1344.45 -1136.66 1359.19 -1047.07 1371.38 -972.243C1383.14 -924.034 1392.36 -909.022 1399.12 -927.787C1405.73 -976.441 1410.24 -1044.29 1413 -1118.54C1417.8 -1212.33 1429.33 -1231.5 1440.61 -1146.24C1453.14 -1063.45 1469.58 -974.173 1490.98 -889.636C1518.34 -819.49 1551.82 -771.511 1591.97 -749.56C1638.32 -754.663 1691.06 -783.094 1749.68 -828.535C1812.08 -884.628 1877.9 -941.017 1945.34 -989.28C2011.18 -1023.79 2074.25 -1037.91 2131.94 -1029.35C2181.35 -998.541 2220.96 -947.336 2248.72 -880.389C2263.95 -802.67 2265.9 -721.021 2254.77 -641.763C2233.44 -569.605 2202.92 -509.787 2166.39 -465.088C2082.2 -444.285 2128.3 -547.803 2220.23 -587.142C2296.3 -604.8 2377.18 -612.225 2456.41 -608.634C2526.83 -594.54 2582.74 -569.362 2618.9 -534.343C2632.65 -490.495 2622.96 -439.6 2591.5 -383.697C2544.22 -323.379 2486.55 -261.454 2426.77 -199.611C2375.22 -137.686 2338.66 -78.3 2323.9 -22.2615C2335.61 31.131 2373.52 80.2036 2434.81 124.916C2512.86 166.118 2598.63 203.148 2681.4 236.533C2750.43 266.746 2796.71 294.098 2813.83 319.262C2800.45 342.158 2758.33 363.771 2694.16 384.737C2619.64 404.339 2545.74 424.049 2485.02 444.339C2449.17 463.928 2443.92 484.623 2471.41 506.709C2528.53 528.525 2606.27 552.028 2692.37 577.395C2772.86 602.707 2834.05 630.005 2865.15 659.354Z" stroke="#9234EA" stroke-opacity="0.5" stroke-width="2" stroke-linecap="round"/>
<path opacity="0.76" d="M2780.08 735.305C2777.07 763.196 2742.37 790.196 2681.74 816.237C2604.75 842.184 2522.71 867.011 2447.66 890.528C2374.39 924.534 2405.75 982.598 2495.24 1005.44C2566.72 1018.91 2632.97 1029.65 2684.35 1037.49C2714.48 1044.37 2717.83 1048.38 2693.79 1049.63C2645.32 1050.45 2577.71 1049.06 2498.96 1045.97C2417.65 1043.81 2342.75 1041.19 2281.83 1039.1C2231.24 1041.78 2271.92 1072.02 2343.12 1105.65C2397.75 1137.47 2447.89 1176.67 2487.33 1223.46C2512.38 1276.67 2518.51 1336.12 2504.67 1400.57C2471.83 1467.1 2421.9 1534.67 2358.87 1600.72C2286.85 1661.63 2211.39 1715.71 2137.59 1760.17C2069.36 1792.77 2011.13 1812.16 1965.43 1817.24C1933.84 1809.2 1916.75 1788.39 1913.13 1756.9C1922.31 1719.79 1940.96 1679.47 1965.99 1640.66C1995.94 1609.78 2026.07 1589.75 2053.45 1584.66C2077.25 1597.83 2093.69 1629.59 2101.44 1679.47C2100.7 1744.51 2089.95 1820.57 2069.6 1901.79C2040.48 1980.73 2003.21 2050.97 1959.29 2105.78C1909.44 2140.07 1855.64 2150.77 1799.51 2137.06C1741.22 2102.46 1683.11 2051.03 1626.33 1990.02C1570.44 1929.83 1517.41 1878.15 1467.71 1843.57C1420.57 1833.48 1377.2 1850.2 1337.52 1893.75C1300.78 1960 1267.42 2041.32 1236.96 2127.68C1209.05 2207.63 1183.37 2270.59 1159.39 2307.69C1137.24 2314.32 1116.04 2289.41 1095.32 2236.95C1075.71 2166.74 1055.99 2089.19 1035.73 2017.44C1016.07 1965.02 995.483 1940.29 973.718 1948.56C952.182 1989.93 929.229 2057.85 904.709 2141.59C880.229 2227.42 854.076 2300.63 826.181 2348.27C798.299 2362.23 768.986 2339.59 738.363 2284.78C707.794 2207.6 676.024 2120.86 643.227 2038.95C610.66 1975.09 577.31 1938.91 543.473 1935.12C510.218 1963.93 476.881 2018.8 443.882 2089.75C411.99 2165.89 381.043 2233.29 351.554 2281.03C323.902 2302.3 298.437 2292.46 275.727 2252.8C255.581 2188.65 238.879 2108.34 226.106 2022.45C216.29 1941.46 210.714 1875.29 209.512 1830.96C210.876 1812.77 216.169 1820.79 224.945 1851.65C234.626 1900.67 246.265 1958.76 258.754 2017.09C273.418 2086.87 279.44 2099.91 262.332 2035.4C239.689 1969.33 208.189 1893.01 167.44 1813.09C118.211 1735.3 61.0565 1666.12 -2.63291 1610C-69.9274 1569.86 -139.166 1547.29 -207.392 1541.7C-270.69 1552.27 -326.765 1575.17 -372.51 1606.37C-405.455 1643.34 -424.047 1680.13 -427.234 1712.73C-416.324 1739.41 -391.966 1755.78 -356.685 1760.27C-315.814 1752.91 -272.338 1732.67 -231.345 1700.66C-199.345 1658.03 -179.47 1606.73 -175.662 1549.13C-190.879 1486.44 -225.04 1421.87 -277.077 1357.6C-343.534 1294.16 -419.632 1234.35 -499.133 1179.29C-574.636 1128.84 -639.595 1084.47 -687.635 1046.16C-714.397 1013.55 -717.367 986.607 -696.533 964.589C-656.068 947.444 -600.479 933.917 -537.289 923.049C-451.335 912.236 -393.924 896.292 -446.272 887.639C-510.947 882.023 -589.232 874.598 -671.473 865.08C-776.479 849.663 -832.365 806.828 -768.041 779.396C-698.518 760.212 -620.652 738.788 -546.457 715.163C-488.614 691.511 -455.318 665.725 -452.307 637.834C-481.08 609.957 -536.007 580.284 -608.122 548.856C-687.23 517.388 -759.939 484.097 -815.244 448.97C-845.786 413.708 -846.083 376.502 -816.257 337.379C-760.79 298.08 -687.028 256.837 -605.084 213.759C-525.678 170.68 -458.896 125.982 -412.611 79.9471C-392.088 34.4926 -398.312 -11.6505 -428.746 -57.9555C-479.055 -102.586 -540.408 -146.272 -603.72 -188.149C-661.428 -226.786 -704.216 -262.21 -726.36 -293.382C-725.374 -319.707 -699.922 -340.497 -652.584 -354.996C-587.882 -363.771 -512.122 -365.877 -432.621 -361.219C-356.132 -351.958 -289.553 -337.27 -237.88 -318.262C-197.63 -287.982 -234.761 -238.707 -293.522 -233.023C-338.727 -242.473 -380.746 -262.953 -414.92 -295.488C-438.832 -339.876 -448.405 -395.348 -442.437 -460.283C-421.252 -531.144 -385.256 -605.367 -336.662 -678.902C-277.698 -746.645 -211.902 -805.234 -142.758 -850.581C-72.6414 -879.768 -5.45488 -891.081 56.2363 -883.872C111.136 -860.692 157.111 -823.513 193.566 -776.736C220.273 -727.839 237.597 -681.561 246.63 -644.53C247.548 -623.767 242.673 -622.363 233.762 -643.045C220.719 -685.948 206.731 -748.157 193.269 -824.702C179.713 -907.902 169.006 -989.793 161.958 -1061.52C157.556 -1129.87 177.863 -1099.63 202.113 -1013.34C223.082 -945.58 247.683 -882.211 275.268 -833.787C305.418 -809.851 337.674 -814.536 371.43 -849.083C406.819 -910.103 442.937 -989.536 479.23 -1076.44C516.456 -1158.14 553.303 -1222.52 589.448 -1259.51C625.998 -1263.9 661.495 -1234.59 695.71 -1176.27C730.073 -1099.89 762.977 -1017.32 794.275 -942.921C825.6 -890.892 855.264 -869.643 883.16 -883.589C911.055 -931.217 936.857 -1003.01 960.621 -1086.05C984.412 -1166.99 1006.24 -1230.75 1026.21 -1266.61C1046.33 -1269.38 1064.76 -1237.8 1081.71 -1177.21C1099.07 -1097.29 1115.29 -1010.27 1130.68 -929.286C1155 -847.57 1206.59 -870.44 1236.48 -958.865C1259.5 -1029.48 1284.98 -1093.86 1313.51 -1142.01C1345.42 -1167.43 1381.06 -1164.86 1420.85 -1134.32C1464.2 -1079.32 1511.74 -1006.06 1563.34 -923.184C1617.49 -839.471 1674.67 -764.221 1734.04 -704.754C1793.28 -666.171 1852.41 -650.903 1909.87 -658.179C1963.22 -685.989 2011.81 -728.203 2053.89 -778.099C2087.86 -830.29 2112.78 -876.298 2127.55 -910.318C2132.59 -929.191 2127.34 -928.962 2112.34 -909.211C2090.55 -871.195 2062.46 -817.304 2030.62 -751.653C1999.74 -678.065 1971.38 -602.059 1948.98 -528.39C1936.95 -460.35 1936.63 -402.111 1950.23 -355.806C1979.04 -322.623 2022.49 -302.9 2079.35 -295.583C2146.46 -300.132 2220.46 -313.51 2296.7 -332.937C2369.32 -357.507 2433.7 -382.833 2484.75 -406.364C2525.79 -435.699 2481.55 -451.777 2409.63 -434.835C2355.01 -413.653 2303.07 -385.236 2261.06 -350.703C2236.41 -310.594 2232.55 -266.233 2252 -218.902C2294.59 -168.466 2356.7 -116.923 2432.53 -65.2589C2513.97 -12.6629 2592.27 38.7721 2658.32 88.5466C2704.49 137.916 2725.25 185.031 2718.02 229.77C2685.02 273.577 2630.28 314.969 2561.63 354.092C2490.45 392.283 2426.18 428.477 2378.9 462.875C2357.24 496.638 2364.4 528.971 2400.46 560.088C2461.27 590.895 2538.17 620.784 2620.06 649.917C2694.97 678.969 2751.31 707.414 2780.08 735.305Z" stroke="#9234EA" stroke-opacity="0.5" stroke-width="2" stroke-linecap="round"/>
<path opacity="0.16" d="M2695.02 530.482C2692.97 556.902 2662.25 581.08 2607.53 603.058C2536.63 625.036 2458.92 644.827 2384.69 662.486C2303.19 688.028 2294.9 729.662 2364.8 746.564C2429.34 757.958 2495.84 768.326 2555.45 778.113C2614.28 794.826 2584.38 834.773 2500.42 861.314C2427.31 883.278 2350.29 908.685 2276.73 938.196C2213.08 971.932 2164.86 1010.33 2135.36 1053.62C2126.37 1100.86 2136.76 1152.55 2163.65 1208.21C2204.06 1265.81 2251.6 1325.5 2300.5 1385.91C2346.64 1444.38 2383.54 1500.4 2407.33 1552.04C2416.28 1596.97 2408.06 1634.19 2383.05 1662.01C2342.79 1679.72 2289.61 1686.5 2227.08 1682.09C2158.37 1668.36 2087.99 1645.5 2019.79 1615.42C1956.47 1582.51 1901.45 1548.21 1856.59 1516.09C1812.09 1483.33 1795.28 1496.77 1815.16 1552.47C1836.42 1608.46 1859.89 1675.53 1883.29 1749.72C1906.39 1825.4 1925.71 1897.76 1939.9 1961.12C1950.62 2025.81 1927.14 2027.65 1893.62 1968.21C1863.41 1914.57 1828.12 1857.69 1788.76 1805.15C1745.55 1765.54 1699.93 1743.74 1652.86 1744.23C1603.96 1769.2 1554.97 1816.88 1506.58 1883.29C1457.9 1961.47 1410.65 2043.04 1365.16 2118.51C1320.22 2178.89 1277.35 2216.88 1236.59 2227.59C1196.69 2210.64 1158.83 2167.98 1122.9 2105.69C1087.74 2034.18 1054.26 1962.93 1022.26 1902.95C990.771 1864.77 960.486 1853.85 931.227 1872.94C902.224 1920.42 873.992 1989.51 846.447 2070.31C818.957 2150.9 792.02 2218.82 765.597 2263.23C739.173 2277.37 713.573 2258.54 688.864 2210.13C664.223 2140.03 640.594 2058.7 618.127 1978.32C585.506 1887.68 528.81 1877.8 505.749 1955.33C491.841 2025.47 480.297 2095.66 471.278 2155.5C460.327 2205.78 451.983 2136.87 453.671 2033.03C455.143 1951.92 457.762 1873.19 460.881 1805.14C462.353 1739.76 451.497 1753.02 433.958 1817.76C415.041 1872.4 390.387 1925.79 359.332 1971.26C321.877 2004.48 277.941 2020.03 227.754 2016C172.827 1992.52 113.472 1950.71 51.0785 1893.96C-11.6118 1826.06 -73.6405 1752.37 -132.712 1678.09C-185.951 1607.31 -231.912 1544.91 -268.435 1493.98C-300.881 1444.86 -287.919 1436.12 -246.94 1466.52C-211.7 1495.72 -173.408 1526.61 -135.912 1556.1C-93.151 1593.66 -85.3468 1619.37 -131.943 1602.38C-183.251 1578.95 -246.711 1546.95 -318.42 1507.75C-392.898 1462.06 -465.04 1411.74 -529.013 1358.4C-579.47 1302.25 -612.415 1245.65 -624.932 1189.82C-616.938 1134.35 -589.165 1081.34 -544.891 1031.35C-490.694 983.583 -431.946 939.452 -376.034 898.952C-331.409 861.246 -303.109 826.969 -295.872 795.73C-312.479 767.016 -351.716 740.704 -410.397 716.296C-482.606 693.751 -560.5 672.395 -635.247 651.726C-719.838 622.512 -734.785 564.03 -661.765 533.237C-592.756 512.636 -518.994 490.752 -450.754 467.438C-398.677 444.191 -369.296 419.377 -367.244 392.958C-393.735 366.538 -444.03 338.81 -510.677 309.879C-585.316 281.003 -656.446 251.046 -714.356 220.198C-752.176 189.594 -763.909 158.355 -748.165 126.792C-707.335 95.8365 -646.089 64.989 -572.071 34.668C-494.056 5.508 -421.077 -22.5045 -361.195 -48.8835C-311.98 -84.456 -360.101 -138.024 -438.373 -153.792C-498.444 -160.177 -554.059 -162.418 -598.454 -160.447C-627.281 -156.249 -635.828 -148.446 -622.96 -137.605C-589.772 -126.387 -538.653 -113.805 -474.167 -101.034C-401.35 -91.071 -326.413 -83.511 -255.149 -79.9065C-192.297 -82.782 -142.299 -92.205 -107.679 -109.485C-89.9375 -135.661 -88.5468 -170.789 -101.644 -215.001C-127.595 -267.111 -161.796 -326.484 -200.088 -391.446C-239.905 -458.757 -275.821 -526.675 -304.459 -592.123C-324.402 -651.24 -332.395 -701.77 -327.629 -740.799C-310.44 -766.314 -280.871 -777.033 -240.459 -772.416C-190.69 -754.434 -133.981 -724.127 -72.8843 -684.545C-8.89784 -641.466 54.8456 -598.077 116.28 -559.561C174.555 -532.197 227.376 -518.846 273.85 -522.882C313.83 -546.332 346.613 -588.452 372.469 -647.244C391.507 -718.268 404.564 -796.243 412.665 -874.449C415.622 -945.364 415.393 -1002.73 413.097 -1040.76C408.061 -1056.16 402.701 -1047.48 397.907 -1016.04C392.466 -967.356 388.78 -906.916 387.322 -842.98C387.565 -764.329 404.132 -740.124 420.469 -809.852C433.526 -882.279 449.053 -963.873 466.755 -1044.21C495.676 -1136.44 562.309 -1149.82 598.711 -1067.69C623.568 -992.52 649.006 -915.138 674.862 -847.692C700.8 -801.913 727.021 -784.404 753.445 -798.525C779.868 -842.926 806.197 -909.495 832.459 -987.444C858.788 -1065.61 885.185 -1130.75 911.811 -1173.02C938.721 -1186.89 966.13 -1169.49 994.241 -1123.56C1022.96 -1055.85 1052.76 -975.618 1083.91 -893.903C1116.04 -821.421 1149.91 -767.34 1185.78 -737.789C1222.9 -735.926 1262.3 -760.131 1304.1 -805.585C1347.15 -866.146 1392.57 -931.662 1440.24 -992.668C1488.59 -1041.92 1538.65 -1071.32 1589.89 -1076.94C1640.48 -1058.06 1691.06 -1015.81 1740.72 -954.707C1787.64 -880.673 1831.9 -801.252 1872.32 -724.046C1907.63 -655.587 1937.32 -601.884 1960.37 -566.541C1976.6 -551.529 1985.26 -556.146 1986.01 -577.733C1980.25 -613.575 1967.46 -657.477 1948.49 -703.768C1926.36 -748.575 1901.18 -785.336 1875 -810.122C1851.71 -821.219 1832.05 -815.967 1818.53 -794.502C1814.37 -758.012 1820.26 -708.426 1837.72 -648.932C1867.59 -582.188 1909.39 -512.433 1962.28 -443.259C2023.87 -376.934 2091.87 -317.034 2162.9 -265.491C2232.4 -223.263 2296.91 -191.484 2352.26 -169.884C2408.28 -157.019 2412.77 -178.025 2363.77 -201.704C2318.08 -220.023 2267.73 -236.965 2218.5 -251.181C2163.29 -267.3 2160.46 -269.028 2223.16 -253.571C2286.92 -237.29 2360.83 -216.351 2438.06 -191.416C2510.91 -163.039 2572.19 -131.665 2615.39 -98.037C2636.27 -62.1 2632.52 -24.894 2604.67 12.9195C2557.37 52.0425 2495.8 91.0575 2427.98 129.506C2364.17 168.548 2311.9 206.577 2278.81 243.297C2270.81 280.246 2289.05 315.67 2332.1 349.42C2395.23 383.238 2470.32 415.287 2547.61 445.5C2616.9 475.713 2668.53 504.063 2695.02 530.482Z" stroke="#9234EA" stroke-opacity="0.5" stroke-width="2" stroke-linecap="round"/>
<path opacity="0.19" d="M2609.96 339.323C2608.78 364.271 2581.86 388.611 2532.89 412.411C2468.23 436.266 2395.46 459.729 2323.25 482.909C2260 506.385 2212.54 529.888 2185.69 553.648C2182.29 578.043 2201.45 603.099 2239.97 629.154C2293.7 656.276 2354.96 684.869 2416.28 715.257C2471.63 747.158 2513.46 781.285 2537.14 817.924C2540.6 856.264 2522.44 897.318 2484.42 941.098C2430.02 986.323 2363.96 1033.98 2292.17 1083.77C2220.41 1133.92 2154.69 1185.18 2099.92 1236.79C2059.76 1286.74 2036.47 1335.33 2030.43 1381.35C2041.4 1423.06 2066.39 1460.19 2101.78 1491.45C2144.74 1516.02 2189.48 1533.2 2231.52 1542.24C2281.41 1540.61 2302.58 1491.67 2268.23 1451.48C2228.37 1423.95 2178.15 1397.55 2120.36 1374.91C2057.24 1359.83 1992.3 1353.25 1928.45 1357.3C1867.53 1373.83 1812.4 1402.85 1764.66 1444.41C1725.1 1497 1694.69 1558.83 1673.3 1627.06C1660.98 1697.37 1656.6 1766.34 1658.86 1829.56C1697.74 1923.87 1765.43 1846.5 1777.54 1769.46C1780.28 1700.95 1755.71 1654.7 1729.34 1695.49C1706.86 1748.32 1680.97 1815.51 1652.29 1891.04C1621.01 1967.37 1587.82 2037.02 1553.34 2092.54C1517.22 2128.15 1480.55 2139.93 1443.81 2126.51C1406.2 2090.62 1369.05 2036.12 1332.7 1970C1295.95 1902.19 1260.3 1840.7 1225.94 1794.19C1191.45 1770.34 1158.39 1772.21 1126.87 1800.56C1095.32 1852.65 1065.34 1921.77 1037.03 1999.03C1008.7 2074.22 982.036 2136.94 957.07 2178.18C932.118 2192.39 909.165 2177.09 888.196 2134.85C867.227 2071.91 848.23 1996.62 831.163 1919.13C806.481 1823.03 766.069 1772.86 749.826 1826.52C739.119 1885.75 729.614 1952.02 721.026 2016.36C707.011 2090.41 676.699 2100.91 657.877 2033.03C642.255 1966.05 624.365 1890.89 603.585 1814.98C579.308 1745.15 551.399 1687.78 519.426 1647.32C483.565 1626.56 443.423 1625.82 398.974 1643.3C351.298 1676.77 300.071 1720.63 245.901 1769.31C190.663 1818.65 134.387 1861.83 78.3528 1894.35C24.817 1913.83 -25.6944 1916.93 -71.5476 1903.19C-110.92 1873.45 -142.96 1829.21 -166.359 1773.51C-180.685 1709.28 -185.262 1640.8 -179.943 1572.03C-166.427 1505.8 -144.797 1445.99 -116.577 1394.94C-85.4548 1354.08 -52.4556 1324.66 -20.4556 1306.58C16.1756 1301.31 27.0718 1342.49 -8.91131 1376.87C-50.6598 1401.53 -104.047 1423.9 -166.67 1442.37C-234.707 1457.22 -304.527 1465.9 -371.645 1467.94C-431.19 1464.06 -479.406 1453.17 -512.635 1435.71C-528.864 1412.44 -526.866 1383.59 -507.018 1350.12C-472.547 1312.34 -426.153 1271.44 -372.685 1228.43C-319.19 1183.02 -270.407 1136.88 -232.223 1090.75C-210.417 1043.81 -207.433 997.826 -224.972 953.222C-262.724 908.807 -317.57 866.214 -384.797 825.566C-458.018 785.538 -530.039 747.508 -593.404 711.423C-641.553 675.985 -669.205 642.33 -673.121 610.308C-653.597 578.759 -612.28 548.6 -553.951 519.71C-486.683 491.049 -417.647 463.428 -355.483 436.766C-309.009 410.157 -283.355 384.385 -282.181 359.424C-306.498 334.476 -352.31 310.635 -413.489 287.955C-483.308 265.329 -552.007 243.985 -611.159 224.046C-665.37 195.291 -623.676 147.177 -537.127 128.642C-465.242 117.666 -391.885 109.039 -324.496 102.883C-240.27 94.4865 -357.549 99.495 -438.305 102.843C-502.737 101.709 -530.984 81.4185 -487.21 57.375C-437.374 33.8445 -376.277 4.37404 -308.442 -31.4685C-238.083 -73.251 -170.221 -121.055 -108.962 -174.366C-57.4244 -231.296 -18.3358 -291.452 7.0887 -353.241C18.2279 -413.789 16.1351 -472.068 2.63302 -525.785C-21.0497 -572.279 -51.0514 -610.214 -84.1856 -637.7C-118.872 -653.873 -150.71 -657.936 -177.121 -649.782C-197.347 -631.449 -208.459 -603.558 -209.607 -568.445C-201.127 -530.793 -182.346 -492.615 -154.14 -457.853C-117.401 -431.622 -73.4649 -416.003 -24.0336 -414.005C30.0153 -428.004 86.4271 -458.001 143.501 -503.455C200.857 -561.951 256.257 -630.207 308.658 -703.701C358.171 -776.534 403.281 -843.615 443.76 -899.343C479.879 -939.1 511.217 -959.648 538.073 -959.202C560.662 -939.047 579.457 -901.003 595.092 -849.46C607.379 -791.856 617.519 -733.968 626.187 -683.195C635.666 -639.104 652.328 -691.834 661.833 -784.242C668.071 -860.476 675.835 -937.507 685.3 -1006.38C700.3 -1073.92 740.024 -1045.74 764.841 -957.65C782.11 -885.1 801.31 -813.537 822.454 -753.084C843.612 -713.34 866.66 -699.287 891.612 -713.475C916.577 -754.704 943.15 -816.156 971.274 -888.84C999.44 -963.617 1029.2 -1029.01 1060.55 -1076.17C1091.96 -1099.59 1124.98 -1095.34 1159.59 -1064.18C1194.25 -1010.37 1230.47 -940.383 1268.16 -862.947C1305.76 -787.198 1344.66 -721.912 1384.61 -674.136C1424.12 -648.823 1464.29 -647.595 1504.7 -669.114C1543.98 -710.559 1582.8 -765.032 1620.6 -825.134C1656.22 -884.466 1689.88 -934.389 1720.84 -968.922C1748.46 -984.757 1772.38 -978.804 1791.95 -951.507C1807.22 -905.27 1817.47 -844.007 1822.33 -773.226C1822.83 -698.463 1818.1 -626.144 1808.34 -561.722C1760.08 -473.486 1690.3 -543.254 1685.52 -604.26C1693.02 -643.032 1709.23 -674.568 1734.98 -696.047C1770.38 -706.482 1814.98 -703.593 1867.91 -687.407C1927.05 -658.76 1990.81 -618.705 2056.61 -569.389C2120.87 -512.527 2181.19 -451.143 2234.34 -387.909C2277.32 -324.256 2308.05 -263.317 2324.67 -206.901C2326.98 -155.655 2314.79 -111.375 2289.23 -74.52C2253.97 -45.1035 2211.19 -23.1525 2164.98 -7.96499C2073.68 -1.68749 2134.16 -30.591 2226.54 -41.769C2298.15 -48.3165 2370.32 -52.191 2436.78 -53.136C2510.65 -50.7465 2531.94 -27.4995 2476.58 -7.39802C2421.09 8.39698 2358.51 26.4465 2296.25 46.386C2242.96 67.392 2204.21 89.802 2185.36 113.279C2189.97 137.376 2217.68 162.121 2266.05 187.258C2330.14 212.665 2402.57 238.18 2474.88 263.601C2538.57 289.102 2585.64 314.361 2609.96 339.323Z" stroke="#9234EA" stroke-opacity="0.5" stroke-width="2" stroke-linecap="round"/>
<path opacity="0.22" d="M2524.89 436.617C2524.52 460.094 2501.18 485.055 2457.79 511.461C2399.41 537.894 2332.1 565.839 2263.01 595.282C2199.28 624.834 2147.12 655.992 2111.37 688.73C2095.39 721.643 2099.79 756.189 2123.23 792.342C2216.06 864.891 2330.8 943.15 2420.37 1025.22C2452.59 1104.07 2410.48 1181.7 2307.69 1253.04C2174.29 1312.02 2048.63 1356.09 1962.45 1379.82C1933.43 1384.55 1959.9 1367.63 2023.72 1332.18C2137.28 1272.85 2159.35 1254.85 2037.64 1356.66C1923.17 1468.66 1805.41 1597.43 1699.2 1719.72C1612.49 1809.28 1552.72 1848.33 1518.66 1827.45C1508.9 1760.14 1515.17 1667.7 1529.13 1585.94C1550.11 1553.94 1566.53 1588.82 1574.12 1690.08C1576.67 1829.4 1567.04 1962.47 1546.18 2041.74C1518.87 2040 1482.86 1958.73 1440.82 1833.41C1418.52 1773.55 1395.32 1724.31 1371.53 1692.1C1347.24 1682.05 1322.68 1695.33 1298.08 1731.25C1273.25 1786.4 1248.58 1854.48 1224.24 1927.67C1199.82 1997.35 1175.84 2054.96 1152.35 2093.12C1128.87 2107.3 1106.15 2095.25 1084.15 2058.89C1062.12 2003.06 1040.69 1934.33 1019.76 1860.95C998.616 1791.45 977.755 1733.56 956.989 1693.43C935.723 1675.28 914.228 1680.13 892.233 1706.39C845.664 1808.99 794.653 1930.96 736.729 2016.89C672.365 2031.75 598.549 1964.17 514.592 1838.85C425.573 1697.03 329.776 1584.17 231.642 1530C140.544 1544.05 59.4094 1609.73 -3.24044 1695.79C-41.5864 1773.85 -51.74 1810.93 -32.243 1794.39C6.7376 1726.25 59.9899 1618.99 112.891 1494.79C143.987 1372.17 143.419 1271.85 100.226 1203.44C14.2178 1170.06 -103.791 1167.41 -233.397 1185.27C-362.599 1262.7 -126.285 1212.08 -179.254 1132.91C-295.345 1069.62 -432.513 1003.35 -543.473 937.575C-575.973 903.798 -588.368 870.763 -579.281 838.741C-550.4 806.463 -504.02 775.386 -444.948 745.7C-380.516 715.919 -316.719 687.609 -260.685 660.852C-219.639 634.095 -197.495 608.931 -197.117 585.455C-219.355 561.965 -260.834 540.432 -316.624 520.803C-381.34 501.161 -446.839 483.395 -505.978 467.424C-568.128 444.204 -563.348 405.418 -497.377 389.07C-366.974 366.255 -235.274 345.519 -146.268 323.582C-126.407 294.125 -174.015 257.553 -263.818 209.493C-363.49 148.028 -431.325 71.2396 -443.274 -21.249C-394.437 -122.445 -294.13 -230.499 -167.696 -336.366C-41.4919 -426.613 57.8296 -493.897 115.781 -527.728C127.419 -526.54 101.009 -490.725 52.4153 -429.678C-6.53496 -367.038 -53.8599 -318.397 -77.5966 -305.707C-74.8691 -344.614 -40.4253 -433.998 20.5503 -560.965C102.994 -695.938 197.873 -807.138 296.371 -863.096C396.165 -850.824 488.358 -776.263 570.154 -668.871C643.565 -577.975 705.715 -540.958 758.697 -582.322C804.442 -694.737 844.868 -839.147 882.862 -959.877C900.631 -995.207 918.441 -1008.04 936.574 -996.799C954.262 -963.549 972.584 -911.452 991.716 -846.612C1010.66 -777.87 1030.6 -712.638 1051.67 -659.164C1072.69 -625.144 1094.93 -614.277 1118.42 -628.438C1141.9 -666.589 1166.38 -722.992 1191.75 -790.33C1217.08 -861.165 1243.22 -925.736 1270.02 -976.253C1296.65 -1007.53 1323.75 -1015.05 1351.12 -998.122C1378.04 -959.04 1404.92 -901.814 1431.45 -832.896C1482.05 -689.445 1528.65 -585.738 1568.15 -557.469C1600.41 -610.227 1621.68 -712.705 1629.69 -817.6C1629.31 -884.452 1616.51 -881.051 1593.84 -807.165C1572.5 -683.519 1552.49 -545.562 1542.47 -429.327C1553.88 -359.545 1589.36 -346.261 1653.85 -380.349C1744.81 -447.187 1856.63 -517.32 1977.17 -567.769C2087.33 -587.277 2172.4 -564.273 2216.22 -502.875C2213.74 -410.764 2166.72 -301.576 2089.44 -189.486C2011.92 -81.6479 1957.13 10.1386 1950.2 82.5391C2004.05 135.945 2110.16 171.261 2244.28 193.684C2407.62 206.645 2336.23 223.452 2169.33 243.864C2116.42 257.067 2132.29 293.706 2201.98 317.034C2265.76 333.328 2334.79 351.459 2401.85 371.412C2459.98 391.392 2502.66 413.127 2524.89 436.617Z" stroke="#9234EA" stroke-opacity="0.5" stroke-width="2" stroke-linecap="round"/>
<path opacity="0.36" d="M2439.83 682.52C2420.55 726.557 2330.11 775.022 2203.52 827.105C2086.26 878.513 2017.5 932.108 2016.61 985.905C2081.44 1036.6 2182.91 1084.21 2282.99 1125.55C2350.15 1159.65 2357.64 1183.26 2302.74 1193.68C2199.7 1194.8 2074.49 1182.59 1957.5 1158.87C1854 1121.28 1927.32 1102.15 2025.46 1165.78C2073.92 1246.08 2089.1 1350.38 2067.27 1468.26C2011.27 1581.24 1927.51 1674.46 1827.86 1730.39C1720.6 1740.49 1618.62 1703.71 1529.52 1630.8C1455.62 1549.41 1400.74 1482.48 1362.85 1457.24C1340.92 1491.6 1329.76 1582.25 1324.25 1710.14C1319.6 1877.15 1258.87 1608.31 1213.6 1664.75C1180.75 1787.59 1142.17 1920.51 1098.14 2008.07C1054.1 2013.5 1005.62 1933.56 952.682 1803.36C899.268 1675.5 840.56 1598.47 776.25 1597.4C710.859 1669.68 639.581 1780.23 563.119 1883.3C487.197 1942.19 408.722 1930.47 330.937 1851.7C260.118 1728.84 196.861 1597.33 146.471 1491.88C112.041 1435.91 96.7156 1436.8 102.738 1483.65C123.963 1559.9 160.378 1635.12 204.624 1686.06C241.256 1701.01 264.533 1670.46 262.805 1600.37C226.917 1500.62 156.773 1387.42 56.3038 1276.49C-60.1654 1177 -176.54 1099.94 -271.487 1047.53C-326.684 1019.59 -331.814 1011.46 -286.38 1015.98C-208.675 1032.08 -119.359 1048.81 -48.5941 1060.92C-25.9781 1071.6 -62.1367 1072.31 -154.167 1062.67C-279.089 1047.96 -401.593 1023.95 -483.43 992.574C-499.538 957.987 -443.733 918.769 -335.203 876.825C-217.303 833.989 -131.335 790.155 -112.054 746.118C-170.41 702.081 -280.425 658.894 -399.041 615.964C-485.212 572.13 -504.236 526.824 -450.309 478.373C-341.9 426.695 -213.036 369.144 -102.913 303.939C-41.843 233.698 -42.2481 154.777 -95.8919 67.797C-184.061 -20.6145 -272.378 -111.78 -332.354 -200.165C-348.125 -276.993 -310.076 -339.08 -226.835 -379.013C-114.079 -394.47 5.91395 -382.968 112.527 -346.491C213.671 -272.201 202.14 -203.607 138.518 -282.758C96.0135 -385.695 69.2523 -509.949 63.0684 -632.043C76.2869 -724.748 111.487 -768.326 164.307 -751.653C231.71 -685.49 308.172 -589.869 388.213 -499.284C472.209 -452.777 553.398 -469.719 629.455 -553.446C703.987 -681.359 772.037 -812.93 833.823 -902.232C893.678 -918.162 948.469 -854.118 999.008 -734.981C1048.9 -613.481 1095.75 -537.989 1139.78 -543.389C1183.82 -630.923 1224.03 -759.375 1259.92 -873.518C1295.16 -929.07 1324.91 -900.544 1348.1 -800.185C1369.4 -665.374 1382.93 -543.861 1388.3 -475.011C1392.15 -478.089 1389.19 -543.47 1381.52 -640.805C1377.81 -736.412 1375.77 -791.181 1380.69 -786.267C1400.18 -721.778 1435.18 -612.171 1489.85 -484.934C1563.91 -366.174 1656.22 -280.355 1761.76 -238.437C1868.62 -242.366 1968.66 -280.611 2048.62 -335.866C2097.54 -396.036 2109.14 -439.884 2081.69 -457.178C2027.07 -446.162 1956.12 -403.893 1889.22 -336.839C1851.84 -250.33 1856.47 -154.292 1911.52 -57.321C2010.79 38.691 2134.99 125.32 2255.45 200.529C2341.37 266.422 2370.46 321.016 2334.25 366.822C2248.97 405.378 2141.14 439.344 2049.73 471.703C2012.79 500.944 2044.79 531.873 2139.67 566.244C2266.99 599.927 2381.48 638.483 2439.83 682.52Z" stroke="#9234EA" stroke-opacity="0.5" stroke-width="2" stroke-linecap="round"/>
<path opacity="0.43" d="M2354.77 723.519C2339.2 764.626 2260.04 802.156 2144.4 835.677C1988.17 882.346 1996.17 942.678 2132.21 952.141C2218.94 953.964 2266.41 948.753 2261.33 938.425C2204.85 931.459 2108.12 925.465 1992.88 925.546C1880.88 939.505 1793.26 968.247 1742.02 1016.21C1731.89 1083.82 1756.88 1170.34 1804.56 1271.52C1865.11 1376.15 1919.34 1476.54 1955.38 1559.67C1969.13 1613.75 1953.47 1631.89 1910.83 1610.79C1845.32 1560.15 1763.55 1489.47 1673.78 1417.85C1579.58 1370.87 1489.73 1362.24 1408.39 1403C1335.13 1490.59 1273.67 1608.88 1222.94 1731.5C1181.41 1827.41 1147.6 1872.1 1118.64 1852.42C1094.98 1778.52 1072.34 1672.62 1048.44 1571.58C1026.47 1515.52 1000.99 1524.61 970.856 1600.75C941.097 1720.84 905.87 1843.26 864.769 1923.02C823.656 1930.89 777.64 1863 727.331 1745.86C677.401 1621.13 623.986 1530.54 568.425 1501.25C514.808 1540.43 461.299 1628.42 410.369 1731.7C364.759 1818.1 325.549 1855.08 295.845 1831.13C275.335 1752.29 267.342 1637.64 273.094 1515.59C338.957 1380.56 359.237 1557.63 271.217 1583.87C181.306 1557.62 75.7602 1499.16 -33.3098 1417.49C-129.539 1319.83 -200.29 1218.37 -232.979 1122.32C-224.527 1034.91 -176.743 963.144 -101.401 907.591C8.77627 853.834 4.56361 811.404 -142.461 802.156C-311.521 794.475 -367.109 751.909 -225.053 713.866C-117.549 686.016 -42.5587 651.55 -26.9908 610.456C-79.352 569.362 -178.7 522.598 -290.741 470.394C-381.894 418 -419.875 359.883 -393.722 296.406C-312.007 232.983 -196.766 164.983 -79.541 94.0274C10.7341 25.8795 54.1298 -41.4721 45.8666 -104.288C-8.53344 -157.775 -87.3047 -200.3 -166.184 -227.502C-227.146 -239.45 -249.992 -233.199 -229.09 -209.142C-167.831 -176.418 -75.5984 -136.148 31.7974 -97.2946C140.8 -74.4121 235.666 -72.4006 307.281 -99.9946C351.352 -160.596 367.959 -250.898 362.64 -362.057C338.363 -476.469 306.66 -577.773 275.74 -646.61C246.508 -670.64 229.05 -645.597 225.647 -578.381C233.546 -492.993 256.04 -411.845 290.552 -363.123C334.515 -369.279 386.039 -433.013 441.735 -542.592C501.887 -669.06 562.349 -776.682 620.908 -831.735C680.736 -818.329 736.931 -739.841 788.483 -623.255C840.209 -514.229 886.872 -450.482 927.973 -458.339C969.087 -538.083 1003.67 -656.316 1032.01 -768.299C1060.52 -836.339 1083.22 -833.328 1100.92 -761.441C1119.88 -644.531 1135.57 -519.008 1149.99 -421.902C1168.89 -379.013 1190.36 -396.941 1217.65 -462.713C1254.37 -555.201 1301.35 -639.995 1360.95 -690.944C1431.84 -695.048 1514.83 -646.61 1607.4 -556.835C1701.68 -442.436 1794.57 -325.971 1877.66 -226.8C1961.72 -140.576 1951.92 -175.433 1869.68 -243.23C1787.58 -298.269 1799.13 -281.462 1928.1 -209.561C2043.64 -142.155 2155.91 -66.7036 2240.46 11.4749C2278.86 93.0284 2262.22 171.22 2195.13 243.972C2101.1 314.941 2005.5 379.35 1939.65 437.535C1929.36 493.735 1979.44 544.995 2078.72 592.191C2198.89 638.739 2302.41 682.425 2354.77 723.519Z" stroke="#9234EA" stroke-opacity="0.5" stroke-width="2" stroke-linecap="round"/>
<path opacity="0.9" d="M2269.7 500.674C2257.53 538.839 2189.19 570.645 2085.31 596.403C1974.52 622.336 1885.25 642.654 1838.49 658.206C1844.4 675.054 1896.36 688.878 1976.97 701.622C2066.89 718.78 2138.98 738.625 2175.38 764.248C2168.98 799.065 2117.98 843.912 2032.9 901.084C1928.14 969.178 1821.89 1049.08 1730.19 1138.44C1663.86 1229.57 1629.45 1319.68 1625.68 1400.69C1649.96 1463.63 1690.95 1503.33 1737.71 1514.02C1784.99 1497.57 1819.81 1455.23 1836.79 1395.08C1836.06 1334.6 1814.02 1284.12 1773.57 1259.08C1717.59 1272.48 1650.31 1326 1576.94 1415.69C1498.32 1526.65 1420.61 1639.24 1346.7 1729.7C1274.53 1778.33 1208.61 1774.05 1149.1 1717.77C1092.86 1628.87 1042.16 1530.29 995.929 1452.69C951.75 1424.3 910.326 1454.65 870.643 1538.88C831.541 1654.17 793.06 1765.79 754.89 1837.97C716.719 1847.91 679.764 1791.4 644.51 1687.99C609.85 1569.79 578.012 1471.24 550.211 1418.82C524.449 1425.4 504.439 1483.6 491.409 1572.21C480.743 1702.16 500.186 1703.16 522.734 1565.28C533.428 1451.36 539.868 1347.84 537.019 1271.07C518.63 1230.39 483.862 1227.2 429.975 1254.38C358.387 1304.86 271.149 1361.68 173.84 1411.67C77.0566 1448.95 -11.5713 1462.21 -80.9046 1449.64C-122.221 1413.38 -130.309 1355.68 -103.737 1283.24C-51.767 1199.61 17.4718 1112.91 88.1958 1028.66C139.22 946.944 159.122 873.693 137.533 809.784C73.1545 753.017 -23.7772 704.943 -135.237 663.66C-237.381 627.804 -307.565 595.674 -328.209 565.096C-296.182 536.976 -218.14 507.937 -114.903 476.617C-18.5653 445.851 45.8802 411.642 58.0591 373.477C11.4363 335.313 -77.313 294.111 -181.428 250.519C-274.228 207.522 -326.927 163.309 -326.035 119.448C-273.053 78.0434 -179.686 39.474 -68.7122 6.08847C7.85827 -15.5655 -126.11 60.9525 -43.6928 43.065C43.7604 1.02599 142.042 -64.611 239.703 -151.916C329.613 -251.924 402.943 -356.373 456.682 -451.926C497.337 -543.834 484.631 -492.264 458.937 -379.12C440.304 -310.932 428.057 -270.729 423.899 -274.523C423.926 -328.32 433.04 -423.131 450.282 -539.622C471.777 -649.768 499.578 -726.219 531.929 -747.535C566.549 -709.857 603.652 -622.539 641.877 -511.907C680.709 -416.03 719.5 -363.38 757.671 -373.289C795.841 -445.46 832.486 -553.203 868.01 -660.946C904.128 -737.626 940.287 -756.77 977.661 -713.678C1017.29 -621.351 1060.21 -504.549 1107.97 -394.106C1159.97 -316.278 1218.66 -287.145 1284.78 -307.787C1355.09 -370.278 1431.83 -451.764 1513.14 -528.673C1592.91 -584.347 1670.94 -600.871 1742.04 -574.546C1800.1 -509.76 1842.17 -416.799 1863.49 -311.256C1864.38 -206.037 1843.46 -116.06 1803.57 -49.5855C1730.63 -3.90151 1646.81 -48.9376 1691.58 -97.8885C1764.58 -128.439 1861.93 -147.501 1970.32 -152.942C2071.28 -147.447 2148.15 -127.805 2185.49 -96.471C2177.84 -55.9575 2126.39 -8.01903 2043.49 44.0505C1954.05 100.548 1878.91 157.437 1840.66 212.557C1854.5 268.974 1918.43 321.907 2018.78 370.305C2130.44 418.891 2223.08 462.51 2269.7 500.674Z" stroke="#9234EA" stroke-opacity="0.5" stroke-width="2" stroke-linecap="round"/>
<path opacity="0.38" d="M2184.64 334.354C2175.5 369.576 2117.45 403.947 2025.79 437.818C1922.35 472.257 1829.93 507.316 1767.66 544.09C1747.66 582.997 1770.3 625.522 1826.74 673.015C1905.2 724.356 1984.3 782.19 2046.54 847.044C2081.61 915.327 2079.3 989.334 2040.32 1067.04C1970.74 1142.48 1880.63 1215.47 1783.16 1281.06C1689.11 1333.64 1610.15 1370.47 1552.81 1387.23C1520.31 1384.59 1511.89 1361.27 1522.94 1320.14C1551.03 1271.96 1586.39 1221.09 1621.94 1178.13C1656.38 1156.61 1680.73 1161.42 1692.3 1198.17C1692.91 1266.14 1679.14 1358.61 1652.81 1463.53C1616.19 1563.54 1570.7 1642.83 1519.51 1686C1462.85 1686.15 1404.46 1642.77 1346.63 1565.53C1287.16 1476.64 1230.34 1395.66 1177.22 1345.18C1124 1342.79 1074.98 1390.26 1030.52 1478.76C986.126 1587.42 946.201 1688.08 910.96 1752.93C875.733 1764.52 846.029 1718.66 821.779 1629.31C797.624 1520.5 779.018 1419.46 765.786 1350.04C752.445 1327.48 743.993 1353.05 739.551 1416.15C733.448 1501.81 729.262 1584.74 724.861 1644.73C714.991 1670.34 700.935 1652.7 679.696 1595.66C648.182 1508.87 605.786 1406.94 550.872 1306C484.996 1218.4 408.209 1155.38 323.348 1121.01C237.394 1116.26 153.64 1135.43 79.3788 1170.14C22.1434 1215.89 -13.3942 1259.93 -22.4946 1294.8C-6.76465 1319.31 32.9451 1326.09 90.302 1314.97C151.102 1288.24 207.055 1246.48 245.198 1193.75C252.759 1131.62 226.363 1064.88 165.468 997.15C77.394 927.153 -24.6279 860.112 -122.977 797.499C-199.291 735.912 -238.758 679.509 -232.358 628.249C-183.683 578.218 -101.63 532.534 -5.15789 490.738C79.5274 449.374 133.995 411.115 143.136 375.894C101.995 340.659 23.6421 309.298 -71.4263 282.042C-194.268 244.255 -188.341 197.275 -61.4347 190.512C41.7214 189.216 135.386 193.698 204.327 202.635C238.879 209.317 237.3 216.513 205.137 220.806C149.09 215.689 85.0227 201.298 26.302 173.731C-19.5241 130.558 -40.7225 71.3474 -34.2144 -3.56412C-1.3638 -88.8436 55.5476 -181.251 129.566 -273.173C215.224 -354.065 303.703 -417.204 388.186 -454.046C465.931 -461.282 531.375 -437.481 583.386 -386.559C622.218 -322.313 648.614 -254.529 665.37 -199.152C672.554 -173.543 674.997 -184.599 675.835 -236.034C672.851 -321.854 672.067 -427.721 675.186 -533.264C677.927 -616.235 685.988 -658.625 699.693 -649.661C713.91 -593.838 733.678 -503.172 758.818 -401.328C784.202 -318.938 814.542 -276.656 849.769 -288.239C885.009 -353.093 924.3 -450.185 967.548 -551.867C1011.04 -633.407 1058.89 -670.505 1111.13 -654.521C1163.87 -590.45 1221.09 -492.642 1282.27 -383.886C1343.08 -286.754 1406.43 -220.428 1470.47 -194.765C1530.71 -212.112 1587.81 -262.683 1638.48 -331.277C1694.46 -433.944 1720.61 -477.252 1686.78 -396.927C1652.7 -312.377 1612.61 -217.526 1573.13 -123.174C1545.29 -35.8696 1532.34 35.8019 1541.1 88.8569C1576.2 122.485 1636.63 138.091 1719.14 139.819C1814.55 128.52 1912.78 111.685 2000.24 94.0949C2078.99 66.9869 2006.93 51.0974 1888.27 66.0284C1814.47 82.4444 1764.86 105.192 1753.69 132.732C1787.87 162.391 1861.21 194.94 1959.52 229.108C2061.58 263.857 2143.5 299.119 2184.64 334.354Z" stroke="#9234EA" stroke-opacity="0.5" stroke-width="2" stroke-linecap="round"/>
<path opacity="0.08" d="M2099.58 463.63C2093.15 495.922 2044.8 532.602 1965.54 573.48C1871.54 614.506 1780.33 659.974 1708.25 709.681C1667.34 759.564 1662.19 813.497 1690.38 870.723C1746.61 926.951 1816.4 984.798 1885.84 1042.31C1945.29 1095.4 1981.33 1144.48 1988.46 1186.43C1966.58 1218.93 1916.93 1240.12 1846.4 1247.6C1762.13 1243.23 1673.82 1225 1590.04 1194.3C1516.12 1158.72 1458.09 1118.91 1417.78 1081.16C1395.86 1055.65 1390.14 1045.13 1396.81 1055.67C1415.09 1091.12 1438 1150.4 1461.21 1230.34C1485.68 1322.2 1504.51 1416.88 1515.94 1501.85C1521.71 1580.73 1483.57 1520.37 1444.82 1405.94C1413.79 1329.99 1379.71 1273.36 1344.14 1250.68C1307 1270.85 1269.91 1330.75 1233.89 1419.96C1197.5 1520.42 1162.92 1610.12 1130.63 1667.88C1098.33 1680.72 1069.07 1644.66 1042.55 1569.33C1015.67 1472.13 990.758 1373.64 966.981 1293.91C941.651 1248.03 915.889 1242.38 888.331 1274.32C857.276 1336.97 822.306 1413.17 781.934 1486.19C736.284 1544.36 683.76 1573.37 623.919 1568.43C559.46 1530.86 489.141 1464.97 414.906 1380.64C341.914 1287.25 270.92 1196.76 206.434 1118.23C117.779 1023.6 217.803 1093.59 294.616 1135.62C331.504 1157.02 349.867 1167.56 342.927 1166.85C306.998 1157.58 244.631 1137.9 161.512 1109.82C68.4018 1075.18 -22.4134 1035.25 -96.8505 992.358C-143.284 946.161 -153.559 899.613 -125.124 854.307C-65.4851 807.88 16.2027 764.059 103.804 723.694C176.675 683.127 221.759 646.461 228.186 614.169C192.23 581.877 123.977 554.715 38.7242 532.373C-82.7813 500.769 -136.074 454.964 -48.1619 435.942C40.4525 420.242 134.724 402.827 220.652 381.51C287.325 353.619 327.183 318.748 338.323 274.981C321.121 222.682 283.166 160.664 233.411 89.4915C177.526 13.6485 127.96 -66.312 91.963 -145.881C71.6288 -217.971 72.655 -279.329 94.4204 -323.838C134.576 -347.828 190.38 -348.624 256.77 -325.593C331.072 -285.201 407.264 -230.661 481.283 -170.897C552.763 -120.191 617.236 -85.59 673.769 -76.815C723.605 -100.67 765.516 -155.993 800.729 -237.83C830.137 -334.517 855.183 -431.73 877.637 -512.609C896.81 -562.802 915.7 -572.562 935.696 -539.163C954.41 -471.906 975.636 -382.928 1000.16 -292.113C1024.39 -223.155 1052.5 -190.35 1084.8 -203.175C1117.1 -260.928 1152.81 -347.342 1191.49 -441.423C1229.88 -524.246 1270.64 -574.668 1312.85 -582.39C1353.76 -547.25 1394.7 -475.2 1434.14 -381.038C1470.27 -281.543 1502.6 -194.184 1529.17 -132.192C1549.92 -103.667 1562.6 -109.296 1565.8 -143.384C1562.29 -199.544 1549.3 -262.926 1527.6 -321.179C1503.37 -367.484 1475.24 -390.825 1447.16 -388.139C1426.98 -360.545 1415.52 -309.731 1417.69 -241.88C1438.26 -161.825 1477.56 -77.6655 1536.03 4.104C1610.17 81.0135 1695.69 147.312 1785.21 201.461C1868.6 243.743 1937.85 274.023 1983.85 294.556C2001.53 305.626 1987.98 311.134 1944.99 313.996C1882.73 312.444 1809.49 311.944 1739.09 314.307C1688.34 315.684 1665.88 321.57 1678.96 332.6C1728.68 343.778 1806.93 360.301 1900.46 382.171C1992.1 404.19 2063.62 431.325 2099.58 463.63Z" stroke="#9234EA" stroke-opacity="0.5" stroke-width="2" stroke-linecap="round"/>
<path opacity="0.49" d="M2014.51 702.675C2010.46 732.024 1971.12 763.857 1904.18 797.715C1821.2 831.236 1735.07 866.12 1658.84 901.422C1603.25 935.334 1574.75 968.234 1574.98 998.69C1603.29 1025.92 1651.75 1048.67 1711.19 1065.3C1774.87 1076.81 1830.32 1080.57 1869.87 1075.71C1890.51 1065.74 1887.22 1047.94 1860.86 1023.5C1814.39 998.649 1751.8 972.108 1679.27 947.687C1601.15 932.364 1524.23 926.762 1453.31 934.983C1390.47 960.552 1339.29 1003.5 1300.31 1063.62C1273.49 1137.02 1257.64 1219.73 1250.44 1304.78C1251.98 1382.94 1257.92 1447.21 1265.63 1489.48C1276.79 1505.28 1286.2 1492.02 1292.3 1451.12C1298.39 1391.61 1299.69 1320.57 1295.91 1250.32C1290.96 1196.36 1281 1166.95 1266.36 1169.9C1250.85 1207.91 1231.31 1275.4 1208.2 1362.03C1184.8 1453.07 1158.35 1531.87 1128.98 1582.82C1099.61 1596.51 1068.04 1569.32 1034.25 1507.65C1000.17 1423.62 963.362 1332 923.504 1248.64C882.768 1186.77 838.332 1154.88 790.008 1155.45C740.523 1187.5 687.068 1241.7 630.103 1306.96C573.111 1374.65 514.079 1430.6 454.71 1466.28C398.798 1478.53 346.046 1463.33 299.247 1423.2C261.198 1362.45 233.343 1287.55 218.14 1206.32C215.116 1124.08 225.985 1048.55 250.343 984.258C282.775 933.174 323.038 897.413 366.488 876.002C419.308 870.048 433.35 907.173 373.927 932.324C308.199 949.01 228.807 960.566 143.622 966.074C62.6633 969.084 -4.90127 965.561 -49.7823 956.03C-66.5924 943.947 -52.1046 926.897 -7.84474 905.877C57.0329 883.427 134.535 858.263 211.686 831.209C272.824 803.763 309.198 775.184 313.249 745.835C282.154 716.472 223.622 687.029 148.753 657.302C68.1451 627.17 -2.10634 595.985 -50.7409 563.072C-72.1283 528.728 -61.1511 491.387 -20.1722 450.225C44.665 406.485 124.976 357.872 210.174 303.993C290.97 247.604 358.265 186.449 406.319 121.554C431.703 57.1726 434.768 -7.55993 418.795 -69.7139C385.904 -124.726 344.331 -171.382 300.651 -205.969C239.878 -228.852 191.649 -173.272 213.077 -106.258C244.658 -59.6834 287.338 -17.4689 337.985 12.7036C395.558 22.2751 456.236 9.04507 517.387 -29.3894C579.821 -91.2464 639.635 -171.099 695.71 -260.307C750.204 -347.085 800.23 -420.417 845.84 -469.03C889.519 -486.189 929.458 -468.328 966.224 -417.798C1001.83 -345.762 1035.23 -262.791 1066.94 -184.572C1098.3 -128.695 1128.61 -104.463 1157.98 -118.138C1187.33 -169.074 1215.05 -244.89 1240.88 -330.129C1277.84 -440.383 1334.93 -466.425 1351.74 -374.206C1359.41 -287.388 1361.53 -197.235 1357.91 -116.194C1347.63 -35.1809 1308.44 -40.1759 1289.18 -105.678C1283.78 -160.177 1284.81 -210.181 1295.24 -248.913C1318.17 -274.387 1353.79 -280.692 1402.96 -267.772C1463.98 -237.532 1535.35 -191.605 1613.43 -134.284C1691.79 -67.8509 1766.05 2.36258 1829.51 72.4681C1876.06 142.142 1901.45 206.753 1902.26 264.911C1880.4 317.979 1837.02 363.839 1777.76 403.205C1714.08 437.441 1652.87 466.83 1604.6 492.858C1580.18 515.673 1583.23 537.152 1615.96 558.617C1675.91 578.678 1754.82 600.143 1841.23 623.795C1921.92 647.123 1983.42 673.313 2014.51 702.675Z" stroke="#9234EA" stroke-opacity="0.5" stroke-width="2" stroke-linecap="round"/>
<path opacity="0.36" d="M1929.45 707.873C1927.4 734.292 1896.26 757.931 1841.24 778.653C1770.33 799.119 1692.41 816.197 1617.38 829.481C1513.48 850.257 1620.91 833.477 1698.8 815.427C1758.96 801.104 1777.58 798.026 1732.93 821.894C1684.85 852.377 1627 894.375 1563.46 947.984C1496.17 1010.68 1429.68 1081.07 1366.85 1155.48C1307.95 1227.87 1255.95 1294.57 1211.36 1349.77C1173.52 1388.52 1142.87 1407.36 1118.33 1403.73C1099.59 1379.78 1084.95 1336.58 1072.92 1279.17C1064.41 1217.71 1056.45 1158.07 1047.8 1109.44C1040.73 1081.78 1031.66 1078.61 1019.81 1102.71C1008.47 1153.05 993.769 1223.36 975.312 1304.52C956.935 1385.24 934.63 1453.37 908.206 1497.78C881.782 1511.92 851.862 1492.61 818.755 1443.89C785.742 1373.9 749.732 1292.6 711.237 1211.71C673.242 1141.76 633.357 1091.26 592.486 1065.04C553.182 1065.57 514.214 1089.72 476.935 1131.88C443.166 1187.47 413.138 1245.94 388.496 1299.21C363.922 1356.79 365.475 1350.47 392.898 1288.05C417.931 1228.36 448.122 1160.88 480.783 1090.49C509.691 1019.47 534.549 952.938 551.426 893.498C555.166 841.442 545.161 798.93 519.332 765.639C477.3 741.056 420.699 724.059 352.459 712.8C277.995 707.63 202.491 705.267 132.901 703.85C56.9655 705.375 47.6761 699.138 117.333 687.596C182.184 678.591 252.314 665.348 318.015 647.703C367.811 630.032 396.26 608.013 398.312 581.594C371.821 555.174 322.552 524.975 258.282 491.184C186.059 457.367 118.103 419.904 63.46 379.08C27.0854 338.283 15.4465 294.368 29.3402 247.928C66.255 202.298 122.761 155.21 192.257 107.973C268.328 63.5986 343.48 21.3031 411.288 -16.8884C510.933 -78.8534 464.864 -43.5374 414.96 7.96507C346.127 92.1241 357.563 47.0611 399.271 -46.8854C434.728 -123.714 474.113 -203.701 515.673 -278.68C560.027 -340.2 604.544 -381.564 648.02 -397.021C692.469 -385.722 734.839 -347.841 774.495 -288.103C814.312 -217.417 851.092 -143.883 884.523 -79.11C917.941 -35.613 947.983 -18.9674 974.42 -33.0884C1000.84 -77.4899 1023.03 -142.938 1041.08 -218.43C1059.12 -294.367 1073.05 -356.913 1083.07 -397.062C1093.27 -410.967 1099.86 -395.199 1103.35 -352.633C1107.81 -289.089 1110.22 -212.247 1111.68 -131.436C1115.91 -54.6479 1121.19 10.0846 1129.11 57.6046C1142.55 84.8071 1161.14 91.557 1186.48 80.325C1219.54 52.65 1260.76 15.3631 1310.49 -25.8254C1366.93 -69.0254 1430 -106.447 1497.63 -134.514C1565.49 -153.495 1631.84 -159.219 1692.52 -151.888C1742.97 -133.218 1780.43 -103.369 1801.33 -64.7594C1804.99 -18.5489 1790.11 32.4406 1757.65 85.6981C1713.42 141.804 1659.8 197.114 1603.11 250.196C1552.97 303.116 1513.67 352.58 1491.65 398.21C1492.66 442.76 1516.91 483.611 1563.48 520.952C1628.31 557.483 1704.05 591.111 1781.5 622.107C1850.99 652.86 1902.93 681.44 1929.45 707.859C1929.45 707.868 1929.45 707.873 1929.45 707.873Z" stroke="#9234EA" stroke-opacity="0.5" stroke-width="2" stroke-linecap="round"/>
<path opacity="0.42" d="M1844.39 471.717C1844.01 495.207 1820.27 514.917 1776.54 531.036C1718.1 547.25 1650.75 560.075 1581.45 569.889C1462.18 591.071 1398.91 604.287 1402.77 616.707C1466.86 641.804 1554.78 680.063 1631.35 741.434C1680.08 826.97 1678.46 937.724 1630.77 1063.72C1547.21 1180.66 1443.05 1270.93 1336.09 1308.11C1229.65 1285.74 1137.36 1206.7 1061.17 1098.87C994.768 1016 939.855 991.008 891.409 1048.01C868.483 1104.83 845.921 1173.58 823.305 1246.94C800.918 1316.74 778.059 1374.56 754.566 1412.72C731.072 1426.9 707.524 1414.41 684.152 1377.65C661.009 1321.87 638.488 1253.27 617.128 1179.95C547.659 1059.64 628.037 1264.61 668.382 1189.57C654.501 1087.26 600.425 970.542 502.778 858.951C377.29 755.649 247.224 672.827 148.712 608.783C110.42 557.955 146.944 516.929 248.088 478.535C308.321 460.755 368.77 442.152 422.549 422.213C461.637 402.516 482.998 381.011 483.376 357.534C461.138 334.044 420.55 309.123 366.852 283.082C304.324 257.27 241.89 230.796 186.316 204.296C111.73 154.089 113.836 109.661 187.99 79.0966C309.523 61.7221 442.626 67.1896 553.384 98.0911C634.451 161.933 567.062 212.99 509.691 103.343C483.713 -24.2459 481.323 -162.567 499.821 -269.244C530.012 -309.055 573.057 -265.518 621.799 -153.198C647.44 -88.9514 673.188 -27.2699 698.491 23.8681C724.01 55.9846 748.652 66.1096 772.132 51.9481C795.625 13.7971 817.404 -41.6204 837.644 -106.771C858.1 -175.486 877.435 -237.343 896.095 -285.106C935.953 -323.986 978.363 -272.281 1029.6 -154.98C1092.51 -12.7304 1172.27 108.432 1270.64 179.726C1377.42 191.457 1490.89 156.884 1594.84 101.507C1669.71 37.0576 1702.82 -6.23694 1681.97 -19.3859C1620.13 -8.35644 1529.14 30.7125 1442.05 87.021C1402.33 156.006 1426.97 228.231 1519.69 295.637C1584.32 330.116 1653.67 362.367 1720.83 391.905C1779.19 421.524 1822.15 448.227 1844.39 471.717Z" stroke="#9234EA" stroke-opacity="0.5" stroke-width="2" stroke-linecap="round"/>
<path opacity="0.63" d="M1759.22 333.504C1744 374.598 1664.22 415.814 1548.79 458.865C1431.74 504.806 1343.68 557.82 1302.06 621.662C1312.49 693.239 1360.78 778.856 1425.85 876.366C1496.49 973.499 1546.65 1068.43 1566.95 1146.41C1560.21 1194.02 1523.15 1202.35 1465.19 1165.33C1391.37 1098.67 1311.43 1012.66 1233.7 935.064C1154.05 900.815 1082.42 922.455 1020.98 1003.68C960.27 1124.74 909.016 1247.71 867.902 1327.47C826.801 1335.34 797.785 1266.52 780.962 1149.81C773.05 949.064 782.974 1121.51 724.86 1158.54C650.693 1139.01 551.79 1087.21 438.346 1015.55C330.491 929.057 245.32 840.443 204.759 757.944C216.236 676.161 280.911 604.935 382.096 544.82C481.661 486.365 553.114 436.644 568.331 395.55C515.672 354.456 419.618 323.906 314.99 304.857C228.685 287.456 193.147 283.919 215.52 294.476C287.217 305.748 392.277 326.687 506.045 349.826C611.848 358.142 692.766 350.933 744.007 316.602C765.421 249.939 764.84 152.753 753.242 35.0866C709.32 -144.679 756.307 114.413 813.056 136.782C854.157 57.024 903.156 -57.6044 960.121 -162.796C1018.61 -228.177 1087.35 -226.408 1166.03 -162.04C1245.88 -54.3104 1332.5 68.5395 1419.07 177.998C1468.35 218.849 1350.05 176.459 1481.68 218.903C1602.17 253.355 1706.56 292.41 1759.22 333.504Z" stroke="#9234EA" stroke-opacity="0.5" stroke-width="2" stroke-linecap="round"/>
<path opacity="0.96" d="M1674.25 492.277C1665.11 527.499 1606.18 572.805 1514.59 627.061C1411 681.493 1316.15 744.646 1246.42 813.901C1210.91 880.308 1209.26 947.335 1233.61 1007.9C1280.04 1054.5 1331 1083.12 1375.19 1086.32C1413.56 1067.15 1433.33 1022.18 1434.21 957.69C1422.27 894.105 1395.27 838.701 1358.65 809.271C1315.28 821.866 1268.89 876.73 1223.9 967.788C1177.41 1076.65 1135.49 1177.81 1100.25 1242.65C1065.02 1254.22 1038.15 1207.37 1018.18 1118.26C996.712 1009.79 979.011 906.876 961.323 830.101C936.871 790.992 905.857 790.303 863.5 819.045C808.317 871.708 737.958 928.165 653.394 975.442C563.024 1013.71 470.292 1029.98 387.173 1024.95C326.143 1004.67 296.196 968.922 305.877 924.426C349.786 872.869 424.574 820.138 514.565 770.985C592.567 720.468 644.348 676.512 653.489 641.277C612.348 606.055 536.898 581.216 448.419 565.286C333.543 542.336 332.233 499.473 440.209 454.329C534.562 405.054 629.225 338.215 713.924 253.759C786.322 160.312 841.168 62.0865 880.297 -27.243C905.465 -92.664 921.654 -123.566 934.508 -110.282C941.529 -59.319 951.791 23.517 968.736 118.381C984.628 193.914 1009.57 233.617 1044.79 222.048C1080.02 157.207 1123.89 63.1935 1174.44 -32.0625C1223.95 -109.526 1277.79 -144.342 1331.83 -131.112C1380.04 -75.8565 1421.88 11.124 1451.02 111.388C1466.21 212.557 1461.94 299.295 1435.73 364.635C1397.21 407.619 1344.32 429.57 1286.66 437.252C1243.25 431.001 1219.06 421.983 1225.99 416.637C1270.94 408.429 1348.89 409.361 1448.41 421.376C1550.49 433.553 1633.09 457.029 1674.25 492.264C1674.25 492.273 1674.25 492.277 1674.25 492.277Z" stroke="#9234EA" stroke-opacity="0.5" stroke-width="2" stroke-linecap="round"/>
<path opacity="0.09" d="M1589.2 719.388C1585.15 748.751 1544.94 781.826 1477.85 816.899C1395.21 850.554 1308.96 883.427 1230.97 912.033C1147.96 942.219 1115.17 931.311 1145.65 882.981C1177.14 842.468 1206.2 796.284 1228.42 752.544C1249.2 725.031 1259.68 715.946 1259.79 732.551C1256.75 778.248 1244.92 848.975 1225.95 936.428C1205.82 1027.36 1180.62 1106.62 1151.27 1157.57C1121.9 1171.26 1089.77 1143.11 1054.53 1081.31C1018.11 997.961 976.527 906.836 928.689 822.366C877.705 753.881 818.876 708.399 752.837 686.705C685.354 688.865 614.143 707.414 544.176 734.535C482.795 770.553 432.783 803.291 401.445 827.888C391.305 849.825 406.427 860.072 447.19 859.032C503.656 853.943 573.192 839.903 644.496 819.113C700.26 796.919 734.515 770.553 738.565 741.204C707.47 711.842 651.288 680.886 581.954 647.717C506.694 613.13 442.991 573.777 400.189 527.985C379.193 478.143 386.187 419.553 417.62 352.377C468.577 282.542 533.576 207.644 604.705 133.151C679.912 67.5541 751.635 14.1886 816.216 -18.5219C876.368 -27.3914 927.932 -8.24843 971.652 38.6911C1011.23 101.628 1045.82 176.054 1077.27 248.063C1107.38 298.553 1136.78 320.76 1166.15 307.085C1195.5 256.149 1223.43 182.844 1248.69 103.235C1282.04 0.0945721 1308.3 -28.4849 1291.81 47.2906C1272.49 121.608 1242.91 202.595 1206.2 281.583C1173.55 357.021 1143.36 421.929 1122.97 475.052C1122.12 518.981 1141.45 553.271 1183.97 580.986C1248.3 603.261 1328.72 623.795 1415.3 645.489C1495.98 665.793 1558.1 690.039 1589.2 719.388Z" stroke="#9234EA" stroke-opacity="0.5" stroke-width="2" stroke-linecap="round"/>
<path opacity="0.36" d="M1504.12 688.621C1503.74 712.111 1479.21 729.783 1435.03 741.42C1376.88 752.436 1310.15 756.337 1241.87 752.679C1117.97 741.703 1034.95 701.136 995.565 647.001C994.957 621.283 1007.43 632.056 1010.28 704.713C1013.72 763.708 1011.47 833.112 1002.48 906.471C993.607 976.144 977.661 1034.38 954.181 1072.53C930.687 1086.7 900.753 1073.29 865.337 1035.99C830.015 980.613 789.549 913.045 745.397 841.441C661.131 707.413 575.352 616.815 514.376 575.532C492.192 577.827 525.381 595.323 614.832 602.248C665.897 607.702 719.257 606.919 768.351 598.873C803.47 590.868 823.237 575.37 823.615 551.88C801.377 528.39 762.586 498.042 713.181 461.74C655.257 425.493 599.359 383.562 551.548 337.405C483.767 249.075 482.025 158.287 533.104 94.4054C619.423 74.1419 719.797 114.912 809.951 214.515C855.615 268.906 896.581 323.109 931.875 369.414C967.008 397.642 996.672 406.296 1020.17 392.134C1043.66 353.983 1059.86 300.51 1069.02 239.895C1078.91 147.582 1052.57 59.0759 1014.29 165.888C1024.78 281.583 1076.35 395.469 1178.59 487.836C1243.6 532.197 1312.86 571.009 1379.87 604.3C1438.33 636.957 1481.88 665.145 1504.12 688.621Z" stroke="#9234EA" stroke-opacity="0.5" stroke-width="2" stroke-linecap="round"/>
<path opacity="0.53" d="M1419.07 444.204C1409.93 479.439 1349.24 493.843 1259.67 493.263C1158.08 498.231 1062.91 500.485 986.937 514.039C927.419 552.474 885.239 619.123 852.955 713.34C827.639 820.476 799.878 922.63 764.651 987.484C729.411 999.067 690.025 950.292 654.285 863.514C625.512 758.241 612.712 656.518 626.052 574.614C655.838 510.286 713.627 465.79 789.401 432.918C853.144 407.889 899.551 380.673 908.692 345.438C867.551 310.203 797.907 270.31 723.672 234.279C649.681 206.091 603.706 195.615 590.069 213.772C596.726 249.507 627.078 313.861 667.99 393.322C715.396 454.275 760.884 488.767 796.125 477.184C831.365 412.33 853.009 324.445 866.66 243.135C886.805 174.744 911.446 145.449 950.953 153.184C1010.77 185.814 1094.1 238.545 1193.92 294.624C1293.97 356.251 1377.92 408.969 1419.07 444.19C1419.07 444.199 1419.07 444.204 1419.07 444.204Z" stroke="#9234EA" stroke-opacity="0.5" stroke-width="2" stroke-linecap="round"/>
<path opacity="0.33" d="M1334.01 337.432C1310.69 384.399 1202.38 446.742 1084.27 540.175C965.414 659.138 875.409 806.882 828.436 902.421C781.448 905.013 786.39 806.112 843.679 686.124C900.199 560.641 970.437 465.669 993.755 418.689C929.148 371.723 836.537 381.645 777.776 445.567C730.748 503.982 737.62 564.813 784.594 562.221C831.568 466.681 909.759 357.021 1018.37 299.619C1138.7 267.759 1269.4 290.466 1334.01 337.432Z" stroke="#9234EA" stroke-opacity="0.5" stroke-width="2" stroke-linecap="round"/>
</g>
<defs>
<clipPath id="clip0_127_176">
<rect width="1920" height="1080" fill="white"/>
</clipPath>
</defs>
</svg>
