<svg width="1924" height="1084" viewBox="0 0 1924 1084" fill="none" xmlns="http://www.w3.org/2000/svg">
<path d="M2 30.5955C77.9494 35.1814 209.595 58.5423 366.557 52.6077C523.519 46.673 593.392 4.53698 755.418 2.10917C917.443 -0.318639 982.253 38.5264 1144.28 40.9542C1306.3 43.382 1371.11 10.5256 1533.14 13.7627C1695.16 16.9998 1840.99 47.5902 1922 56.4922" stroke="#6A21A6" stroke-opacity="0.15" stroke-width="2.5" stroke-linecap="round"/>
<path d="M2 1056.1C77.9494 1060.69 209.595 1084.05 366.557 1078.12C523.519 1072.18 593.392 1030.04 755.418 1027.62C917.443 1025.19 982.253 1064.03 1144.28 1066.46C1306.3 1068.89 1371.11 1036.03 1533.14 1039.27C1695.16 1042.51 1840.99 1073.1 1922 1082" stroke="#6A21A6" stroke-opacity="0.15" stroke-width="2.5" stroke-linecap="round"/>
<path d="M2 1009.49C77.9494 1014.08 209.595 1037.44 366.557 1031.5C523.519 1025.57 593.392 983.431 755.418 981.003C917.443 978.575 982.253 1017.42 1144.28 1019.85C1306.3 1022.28 1371.11 989.419 1533.14 992.656C1695.16 995.894 1840.99 1026.48 1922 1035.39" stroke="#6A21A6" stroke-opacity="0.15" stroke-width="2.5" stroke-linecap="round"/>
<path d="M2 962.875C77.9494 967.461 209.595 990.822 366.557 984.888C523.519 978.953 593.392 936.817 755.418 934.389C917.443 931.961 982.253 970.806 1144.28 973.234C1306.3 975.662 1371.11 942.805 1533.14 946.043C1695.16 949.28 1840.99 979.87 1922 988.772" stroke="#6A21A6" stroke-opacity="0.15" stroke-width="2.5" stroke-linecap="round"/>
<path d="M2 916.261C77.9494 920.847 209.595 944.208 366.557 938.273C523.519 932.339 593.392 890.203 755.418 887.775C917.443 885.347 982.253 924.192 1144.28 926.62C1306.3 929.048 1371.11 896.191 1533.14 899.429C1695.16 902.666 1840.99 933.256 1922 942.158" stroke="#6A21A6" stroke-opacity="0.15" stroke-width="2.5" stroke-linecap="round"/>
<path d="M2 869.647C77.9494 874.233 209.595 897.594 366.557 891.659C523.519 885.725 593.392 843.589 755.418 841.161C917.443 838.733 982.253 877.578 1144.28 880.006C1306.3 882.434 1371.11 849.577 1533.14 852.814C1695.16 856.052 1840.99 886.642 1922 895.544" stroke="#6A21A6" stroke-opacity="0.15" stroke-width="2.5" stroke-linecap="round"/>
<path d="M2 823.033C77.9494 827.619 209.595 850.98 366.557 845.045C523.519 839.111 593.392 796.975 755.418 794.547C917.443 792.119 982.253 830.964 1144.28 833.392C1306.3 835.82 1371.11 802.963 1533.14 806.2C1695.16 809.438 1840.99 840.028 1922 848.93" stroke="#6A21A6" stroke-opacity="0.15" stroke-width="2.5" stroke-linecap="round"/>
<path d="M2 776.419C77.9494 781.005 209.595 804.366 366.557 798.432C523.519 792.497 593.392 750.361 755.418 747.933C917.443 745.505 982.253 784.35 1144.28 786.778C1306.3 789.206 1371.11 756.349 1533.14 759.587C1695.16 762.824 1840.99 793.414 1922 802.316" stroke="#6A21A6" stroke-opacity="0.15" stroke-width="2.5" stroke-linecap="round"/>
<path d="M2 729.805C77.9494 734.391 209.595 757.752 366.557 751.817C523.519 745.883 593.392 703.747 755.418 701.319C917.443 698.891 982.253 737.736 1144.28 740.164C1306.3 742.592 1371.11 709.735 1533.14 712.973C1695.16 716.21 1840.99 746.8 1922 755.702" stroke="#6A21A6" stroke-opacity="0.15" stroke-width="2.5" stroke-linecap="round"/>
<path d="M2 683.191C77.9494 687.777 209.595 711.138 366.557 705.204C523.519 699.269 593.392 657.133 755.418 654.705C917.443 652.277 982.253 691.122 1144.28 693.55C1306.3 695.978 1371.11 663.121 1533.14 666.359C1695.16 669.596 1840.99 700.186 1922 709.088" stroke="#6A21A6" stroke-opacity="0.15" stroke-width="2.5" stroke-linecap="round"/>
<path d="M2 636.577C77.9494 641.163 209.595 664.524 366.557 658.59C523.519 652.655 593.392 610.519 755.418 608.091C917.443 605.663 982.253 644.508 1144.28 646.936C1306.3 649.364 1371.11 616.507 1533.14 619.745C1695.16 622.982 1840.99 653.572 1922 662.474" stroke="#6A21A6" stroke-opacity="0.15" stroke-width="2.5" stroke-linecap="round"/>
<path d="M2 589.963C77.9494 594.549 209.595 617.91 366.557 611.976C523.519 606.041 593.392 563.905 755.418 561.477C917.443 559.049 982.253 597.894 1144.28 600.322C1306.3 602.75 1371.11 569.894 1533.14 573.131C1695.16 576.368 1840.99 606.958 1922 615.86" stroke="#6A21A6" stroke-opacity="0.15" stroke-width="2.5" stroke-linecap="round"/>
<path d="M2 543.349C77.9494 547.935 209.595 571.296 366.557 565.362C523.519 559.427 593.392 517.291 755.418 514.863C917.443 512.435 982.253 551.28 1144.28 553.708C1306.3 556.136 1371.11 523.279 1533.14 526.517C1695.16 529.754 1840.99 560.344 1922 569.246" stroke="#6A21A6" stroke-opacity="0.15" stroke-width="2.5" stroke-linecap="round"/>
<path d="M2 496.735C77.9494 501.321 209.595 524.682 366.557 518.748C523.519 512.813 593.392 470.677 755.418 468.249C917.443 465.821 982.253 504.666 1144.28 507.094C1306.3 509.522 1371.11 476.666 1533.14 479.903C1695.16 483.14 1840.99 513.73 1922 522.632" stroke="#6A21A6" stroke-opacity="0.15" stroke-width="2.5" stroke-linecap="round"/>
<path d="M2 450.121C77.9494 454.707 209.595 478.068 366.557 472.134C523.519 466.199 593.392 424.063 755.418 421.635C917.443 419.207 982.253 458.052 1144.28 460.48C1306.3 462.908 1371.11 430.051 1533.14 433.289C1695.16 436.526 1840.99 467.116 1922 476.018" stroke="#6A21A6" stroke-opacity="0.15" stroke-width="2.5" stroke-linecap="round"/>
<path d="M2 403.507C77.9494 408.093 209.595 431.454 366.557 425.52C523.519 419.585 593.392 377.449 755.418 375.021C917.443 372.593 982.253 411.438 1144.28 413.866C1306.3 416.294 1371.11 383.438 1533.14 386.675C1695.16 389.912 1840.99 420.502 1922 429.404" stroke="#6A21A6" stroke-opacity="0.15" stroke-width="2.5" stroke-linecap="round"/>
<path d="M2 356.893C77.9494 361.479 209.595 384.84 366.557 378.906C523.519 372.971 593.392 330.835 755.418 328.407C917.443 325.979 982.253 364.824 1144.28 367.252C1306.3 369.68 1371.11 336.824 1533.14 340.061C1695.16 343.298 1840.99 373.888 1922 382.79" stroke="#6A21A6" stroke-opacity="0.15" stroke-width="2.5" stroke-linecap="round"/>
<path d="M2 310.279C77.9494 314.865 209.595 338.226 366.557 332.292C523.519 326.357 593.392 284.221 755.418 281.793C917.443 279.365 982.253 318.21 1144.28 320.638C1306.3 323.066 1371.11 290.21 1533.14 293.447C1695.16 296.684 1840.99 327.274 1922 336.176" stroke="#6A21A6" stroke-opacity="0.15" stroke-width="2.5" stroke-linecap="round"/>
<path d="M2 263.665C77.9494 268.251 209.595 291.612 366.557 285.678C523.519 279.743 593.392 237.607 755.418 235.179C917.443 232.751 982.253 271.596 1144.28 274.024C1306.3 276.452 1371.11 243.596 1533.14 246.833C1695.16 250.07 1840.99 280.66 1922 289.562" stroke="#6A21A6" stroke-opacity="0.15" stroke-width="2.5" stroke-linecap="round"/>
<path d="M2 217.051C77.9494 221.637 209.595 244.998 366.557 239.064C523.519 233.129 593.392 190.993 755.418 188.565C917.443 186.137 982.253 224.982 1144.28 227.41C1306.3 229.838 1371.11 196.982 1533.14 200.219C1695.16 203.456 1840.99 234.046 1922 242.948" stroke="#6A21A6" stroke-opacity="0.15" stroke-width="2.5" stroke-linecap="round"/>
<path d="M2 170.437C77.9494 175.023 209.595 198.384 366.557 192.45C523.519 186.515 593.392 144.379 755.418 141.951C917.443 139.523 982.253 178.368 1144.28 180.796C1306.3 183.224 1371.11 150.368 1533.14 153.605C1695.16 156.842 1840.99 187.432 1922 196.334" stroke="#6A21A6" stroke-opacity="0.15" stroke-width="2.5" stroke-linecap="round"/>
<path d="M2 123.823C77.9494 128.409 209.595 151.77 366.557 145.836C523.519 139.901 593.392 97.765 755.418 95.3371C917.443 92.9093 982.253 131.754 1144.28 134.182C1306.3 136.61 1371.11 103.754 1533.14 106.991C1695.16 110.228 1840.99 140.818 1922 149.72" stroke="#6A21A6" stroke-opacity="0.15" stroke-width="2.5" stroke-linecap="round"/>
<path d="M2 77.2095C77.9494 81.7954 209.595 105.156 366.557 99.2216C523.519 93.287 593.392 51.151 755.418 48.7232C917.443 46.2953 982.253 85.1403 1144.28 87.5681C1306.3 89.996 1371.11 57.1396 1533.14 60.3767C1695.16 63.6137 1840.99 94.2042 1922 103.106" stroke="#6A21A6" stroke-opacity="0.15" stroke-width="2.5" stroke-linecap="round"/>
</svg>
